<svg id="Layer_1" data-name="Layer 1" xmlns="http://www.w3.org/2000/svg" viewBox="0 0 434.9 435.7"><title>Artboard 1</title><path d="M214.6,415.4a7.38,7.38,0,0,1-1.3-.8c-2.3-3.2-4.5-6.4-6.8-9.5-1.6-2.4-3.2-4.7-5-6.9a11,11,0,0,0-1.4-1.1c-1.3,7.6,1.1,15.4-2.9,22.5-2.4-1.8-1.9.3-2.1,1.9a8.09,8.09,0,0,1-3.4-4.8c-1.1-3.4-2.3-6.8-3.1-10.1a31.28,31.28,0,0,1-.6-6.8,3.56,3.56,0,0,0-2.9-3.5l-1.1,6.8-.6-.2a47.08,47.08,0,0,0,.3-5.3,19.31,19.31,0,0,0-.5-4.2c-.2-.5-.8-.8-1.1-1.3a11,11,0,0,0-1.1,1.4,38,38,0,0,0-1.8,6c-.6,4.2-.8,8.4-1.3,12.4a5.67,5.67,0,0,1-1.3,2.7c-1-4.3.3-8.7.5-13.5-1.8,3.5-3.4,6.6-7.6,7.2,1.1-3.1,4.3-5,4-9.2l-2.7,3.4-.6-.3.8-3.9-.5-.2a6.38,6.38,0,0,1-.8,1.4,21.1,21.1,0,0,0-1.9,2.3,3.84,3.84,0,0,0-1.1,2.3c-.6,7.1-.6,14,2.1,20.8a4.13,4.13,0,0,1,.2,1.9l-1,.2a35.08,35.08,0,0,1-2.1-7.2,70.62,70.62,0,0,1-.3-13c.5-7.1,1.4-14,2.1-21.1a6.11,6.11,0,0,0-.3-1.3c-1.9,9.5-4.8,18.7-4.8,28.5h-.8c.2-2.3.3-4.3.5-6.4a55.43,55.43,0,0,0,.3-7.1l-6.6,6a3.79,3.79,0,0,1,.6,1.3c.5,1.9,2.7,3.5.5,5.8-.6.6,0,2.6-.2,3.9a12.8,12.8,0,0,1-1.3,4.2c-1.1-5.3.3-10.9-2.9-15.6l7.9-6.1-.3-.6h-1.6a8.93,8.93,0,0,1-1.3-.5,7.63,7.63,0,0,1,.8-1.1,3.13,3.13,0,0,0,.8-1.1,5.84,5.84,0,0,1-1.8.2,4.11,4.11,0,0,1-1.3-.8c.3-.3.6-.8,1-1a8.17,8.17,0,0,0,5.1-5c-1.8-1.6-3.7,2.1-5.6-.5l2.6-1.4-2.1-6.1-2.6.6-.3-.5a18.37,18.37,0,0,1,1.4-1.4c1.4-.8,2.9-1.4,4.5-2.3a3.58,3.58,0,0,0,2.3-3.5c-3.2,2.4-6.3,4.7-10.6,3.5l.2.6,2.7.8c-2.9,1.4-3.5,4.2-4.3,6.8a4.11,4.11,0,0,1-5-1.6l-.5.8a7.88,7.88,0,0,0,3.1,2.3c1.6.5,3.5,1,4.2-1.9l.5.6c-.3,2.9-.8,5.8-1.3,8.7-.3,2.6-.8,5.1-1.3,7.6a7.16,7.16,0,0,0,1.8,6.4,24.79,24.79,0,0,1,2.1,3.9l-.6.5-3.5-4.3-1.1,17.2H148l-.8-3.9c1.3.3,1.8-2.3,1-5.3l-.5,3.5h-.5v-1.9c.5-3.1.8-6.3,1.3-9.3a4.12,4.12,0,0,0-1.9-4.2c-1.4,8.2-5,15.8-4.3,24.1h-1a8,8,0,0,1-.5-2.6c.3-3.4.5-6.6,1.1-10a50.28,50.28,0,0,1,2.1-6.9,4.56,4.56,0,0,0-2.9-5.5c0,.8-.2,1.6-.2,2.4s-.2,1.4-.2,2.4c-1.8-1.6-2.1-4.3-5-4.5a5.54,5.54,0,0,0-2.4-5.1v22.8c-2.1-3.5-2.3-7.6-2.9-11.4-.8-5.3-1.6-10.8-2.4-16.1l.8-.2,1.3,8.8h.5a5.82,5.82,0,0,0,.5-1.1c.2-3.2,1.1-6.6-1.1-9.3-1.8-2.1-2.6-4.5-4.2-6.6s-2.9-4.3-4.5-6.6-3.4-4.3-5.1-6.4a11.94,11.94,0,0,1-.8-1.6l.5-.5c1.3,1.1,2.4,2.1,3.5,3.2l6.1,5.6a1.1,1.1,0,0,0,.6.3,2.91,2.91,0,0,1,3.1,1.9c.2.5.8.8,1.6,1.3l2.6-13.5h.2c-.2,3.7-.3,7.4-.5,11.1a5.1,5.1,0,0,0,1.6,4.2c1.3,1.4,2.4,2.9,3.5,4.3a10,10,0,0,1,1.4,2.3l.6-.6c.2-.2.3-.2.3-.3,1.8-8.4,3.7-16.7,5.1-25.3a72.58,72.58,0,0,0,.2-9.3c0-1.4-.6-2.1-2.1-1.6-5.5,1.9-10.8.2-15.4-1.9-7.4-3.4-14.3-8-17.9-16.1a121,121,0,0,0-6-10.6l1-1.3c-1.9-1.4-2.4-5.5-.8-8a5.86,5.86,0,0,1,1.4-1.8c8.4-7.4,17.2-14.2,28-18a76.08,76.08,0,0,1,10.3-3.1,39.71,39.71,0,0,1,7.7-.3c5,0,10,0,15,.2a28.21,28.21,0,0,1,15.8,5.5c1.3,1,1.9,1,2.9-.5,1.6-2.3,3.5-4.2,5.3-6.4,4.7-6,11.3-9.7,17.2-14a30.42,30.42,0,0,1,8.2-5.1c2.4-.8,4.3-3.1,6.4-4.3,2.6-1.6,5.3-3.1,8-4.5a3.46,3.46,0,0,1,1.8-.2c3.5.5,7.1.8,10.5,1.4,5,1.1,9.8,2.4,14.6,3.7a22.51,22.51,0,0,1,2.4.8c1.3.5,2.1.3,2.3-1.3.2-2.3.3-4.3.5-6.4.2-3.2.3-6.4.2-9.7-.2-8-.3-16.1-.6-24.3,0-2.1-.5-4.3-.6-6.4-.2-3.2-.2-6.4-.6-9.5a197.49,197.49,0,0,0-3.5-24.3,87,87,0,0,1-2.7-18.2c0-4.5-1.3-8.8-1.8-13.2-.2-2.7-.2-5.3-.2-8,0-1.3,0-2.3-1.8-2.3-2.1,0-4.3,0-6.4-.2-3.5-.3-7.2-1.1-10.8-1.3-5.6-.3-11.3-.5-16.9-.8-3.1-.2-6.1-.6-9.2-.5a49.07,49.07,0,0,0-8.8,1.3c-5.5,1.4-11.1,1.1-16.6,1-4.7-.2-9.2-1-13.7-1.4-2.1-.3-4-.5-6-.8a2.43,2.43,0,0,1-1.4-1l13.5,1.3.2-1c-3.2-.5-6.6-.8-9.8-1.4s-6.9-1.6-10.3-2.3c-3.1-.6-6.1-1.1-9.2-1.4-4-.3-7.4-2.3-10.9-4.2a40.46,40.46,0,0,1-11.3-8.5,9.17,9.17,0,0,0-2.1-1.3l-7.7-4.8c-1-.6-2.1-1.3-3.2-1.9-1.8-1-3.7-1.9-5.5-2.9a11.08,11.08,0,0,1-4.8-6.8,27.93,27.93,0,0,1-1.4-4.7,17,17,0,0,1,3.2-14.3,44.63,44.63,0,0,0,3.5-5c2.3-3.1,6-3.2,9.2-4.5A48.43,48.43,0,0,1,131.3,76a32.69,32.69,0,0,0,5.6-1,121.08,121.08,0,0,0,14.6-4,60.74,60.74,0,0,0,15.3-7.6c3.4-2.4,7.2-4.5,10.8-6.6a41.61,41.61,0,0,1,4.2-2.3c-4.3,3.4-9.3,5.8-13.7,9.5,5.1,1.8,7.4-1.6,10-4.5.6-.8,1.8-1.4,2.6-2.3a37.87,37.87,0,0,0,2.6-2.9c.2-.3.5-.6.8-1,2.6-2.3,5.8-4,7.7-6.6,2.7-3.4,6.4-5.3,9.3-8.4s5.8-6.3,8.7-9.3a2.16,2.16,0,0,0,.6-2.7c-.3-.6.5-2.1,1.1-2.6,2.3-1.8,4.7-3.2,7.1-4.8a106,106,0,0,1,9.3-6.1c5.1-2.6,10.8-4.2,15.8-7.1,4.2-2.4,8.5-2.6,12.9-3.1s9-1.1,13.4-1.6c3.7-.3,7.4-.5,11.1-.8H285l-6,.6V2.1l11.9,2.3.2-.5-4.2-2.4.3-.8c1.9.8,3.9,1.3,5.8,2.3a44,44,0,0,1,6.6,3.9c3.9,2.4,7.9,4.8,11.6,7.4,5.1,3.5,10.3,7.2,15.1,11.1,6,4.8,11.3,10,15,16.9.6,1.1,1.8,1.9,1.3,3.5-.2.5.8,1.3,1.3,1.8,5,5.1,10,10.3,15.1,15.6l-1,1c1.6,2.3,3.2,4.3,6.6,4.2l-.3.6H363c1.4,1.4,2.3,3.4,4.7,3.9,1.3.3,2.3,2.1,3.4,3.2s2.1,2.6,4.2,2.1a1.6,1.6,0,0,1,1.4.8c4.5,5.8,11.3,8.5,17.2,12.6a68,68,0,0,0,18.3,7.9,32.38,32.38,0,0,0,9.3,1A12.19,12.19,0,0,1,431,105c.8,1,1.8,2.1,2.6,3.1,2.3,2.6,1.6,5.6,1,8.5-.6,2.6-1.1,5-3.1,6.9s-3.9,3.9-5.8,5.8a1.81,1.81,0,0,1-1.4.2c-4.7-1.1-8.7,1-12.9,2.6l-1.8.6-.3-.3,1.3-1.8c-2.6-1-12.7,3.2-15.4,6.8l6.9-1.6.2.3a7.1,7.1,0,0,0-1.4,1c-4.8,1.6-9.7,3.2-14.5,4.7a22.9,22.9,0,0,1-12.7-.5c-1.9-.6-4.2.2-6.4.3-1.8.2-3.4,1-5.3.2a7.91,7.91,0,0,0-4.3.3c-4.7.8-9.3,1.8-14,2.3-3.2,0-6.3,0-9.5-.3a28.5,28.5,0,0,0-2.9.3c-6.6,1.3-13.2,2.9-20,3.9a47.17,47.17,0,0,1-9.2-.2,6.15,6.15,0,0,0-1.9.2,40.38,40.38,0,0,1-15.1-.3c-1.8-.3-2.6.3-2.6,1.9,0,4.5-.2,9-.2,13.5.2,7.6,2.1,14.6,4.2,21.9,1.6,5.5,3.4,10.8,5.1,16.1.2.5.8,1,1,1.4a5.24,5.24,0,0,1,.8,2.6,8.17,8.17,0,0,0,2.9,7.4,2.74,2.74,0,0,1,.6,2.7c-1.8,3.2-.5,6.1.2,9.2.5,2.6,1.8,5.1,1.8,7.9.2,5.3,0,10.6-.3,15.9-.2,2.6-.6,5-.8,7.4v.6c1.9,3.7-1.1,6.3-1.9,9.5-.8,2.6-1.6,5.3-2.6,7.9-1.1,3.9-2.6,7.6-3.4,11.4a53.09,53.09,0,0,0-1.6,11.1c0,1.8,1.4,3.5,2.6,5.1,2.4,3.4,5.1,6.8,7.7,10.1a1.81,1.81,0,0,1,.2,1.4,41.36,41.36,0,0,1-8.8,11.9,15.51,15.51,0,0,0-1.9,2.3,5.32,5.32,0,0,1,1,4.7,9,9,0,0,0,.3,3.7,50.68,50.68,0,0,1,.3,5.5c0,1.8-.3,4-.3,6,.2,6,.3,11.7.5,17.7a17.32,17.32,0,0,0,1.1,3.7c0,.2.3.3.3.5.3,7.7,2.6,15.1,3.7,22.8a2,2,0,0,0,.6,1.3c1.6.6,1.3,1.9,1.1,3.1-1,5-5,7.1-9.3,8.7h-1l-5.3-.3c-.5,0-1-.2-1.8-.3,2.9-1.9,6.8-.6,8.7-3.9-2.7-.3-4.8,2.7-7.9,1.1l7.1-4.8-.3-.5-5.8,2.6-.2-.3,4.2-2.7-.3-.5-4.7.2c1.9-2.9,5.5-2.9,7.4-5.8-3.4.8-6.3,3.2-9.7,1.3,3.1-1.8,7.1-1.3,9.5-4.8l-6,1.3v-.3l4.8-2.4-.2-.2-9.2,1.9-.3-.6c1.1-.8,2.3-1.6,3.4-2.3,1.8-.8,3.9-1.1,5.5-2.1a7.13,7.13,0,0,0,2.6-3.1c-1.9,1-3.9,1.8-5.8,2.6a12.1,12.1,0,0,1-5,.3c-2.3-.3-2.6,0-2.6,2.3a65.91,65.91,0,0,1-1,7.6c-1-2.7,1-5.6-1-8.4.3,2.6-2.3,2.9-3.2,4.5a24,24,0,0,1-1.6,2.7c-1,1.8-.6,2.6,1.4,3.1a9.5,9.5,0,0,1,1.8.6l-.2.8c-1.1-.2-2.3-.5-3.4-.6h-1.6c.3.5.5,1.3,1,1.4,2.1.8,4.2,1.9,6.4.3.2.3.5.6.5.8a56.49,56.49,0,0,0,.5,7.1,55,55,0,0,0,2.3,7.6,11.85,11.85,0,0,1,.5,3.2c0,.5-.5,1-1,1.9-.6-2.1-1-3.7-1.4-5.3a2.37,2.37,0,0,0-1.1-1.3c-2.9-1.1-6-2.3-8.8-3.4a9.12,9.12,0,0,0-2.7-.5,1.08,1.08,0,0,0-1.1.8c-.2.3.3.8.6,1.1a9.35,9.35,0,0,1,1.6,1.8c-2.1-.3-4.2-1-4.7,2.1,0-.5.2-1,.2-1.4.2-.5.3-1,.5-1.4-1.8-.6-2.3-.5-2.9,1.6-.8,2.6-1.4,5-2.3,7.6a8.64,8.64,0,0,1-1,1.6l-.8-.3c1.1-3.4,2.1-6.6,3.2-10a6.4,6.4,0,0,0-1.1-5.8,1.69,1.69,0,0,0-1-.3c-1.3.2-2.6.3-3.9.6a1.74,1.74,0,0,0-1,1.3c0,2.9.2,5.8.3,8.5.2,1.6.6,3.2.8,4.8a2,2,0,0,1-.6,1.1c-.3-.3-1-.6-1-1-.2-4.5-.2-9-.3-13.7a5,5,0,0,0-.5-2.1c-1.4-1.8-1.4-1.9.3-3.2a12,12,0,0,0,1-1.1l-2.1-1,2.9-2.1-5.3.3,2.6-4c-1.8-1.1-2.3-1-2.9,1-1.1,3.7-2.3,7.4-3.4,10.9-1.6,4.8-3.5,9.7-5.3,14.5a9.13,9.13,0,0,1-.8,1.3L233,413l.3-.2.8,1.6.5.2c3.1-7.4,5.3-15.1,7.6-22.8s4.8-15.4,7.1-23.2c-.2-.2-.5-.2-.6-.3a7.14,7.14,0,0,0-2.1-.2,7.64,7.64,0,0,1,1.1-1.6c1-1.1,2.1-2.3,3.1-3.5a5.34,5.34,0,0,0,.6-1.4h-2.1l2.9-5.8c-2.1,1.3-3.9.6-5.3-1.3l3.1-2.6-1.8-1.3,3.1-1.9c-3.2,1.8-3.9-1.9-5.8-2.6v-.5l5.1-1.3c-2.4-1.9-3.9-4.2-6.9-4.5-1.9-.2-2.1,0-1.6,1.8.6,2.6,1.1,5.1,1.6,7.7a5.69,5.69,0,0,1,0,2.6c-.2,2.9-.5,3.2-3.2,3.1H240a30.9,30.9,0,0,1,1.4,3.2c.2.3.2.8,0,.8-1.8,1-1.8,2.4-1,4.2l-2.3-.2-1,2.9a24.81,24.81,0,0,1,3.5,1.3c.3.2,1,.3,1,.6a1.43,1.43,0,0,1-.5,1.1l-3.5,1.9a4.5,4.5,0,0,0-1.9,1.4c-.5,1.1.5,1.4,1.4,1.8.5.3,1.1.5,1.4,1l-1.8.8,3.7,2.4c-3.1.6-3.4,2.4-3.1,4.7,0,.5-1.1,1.1-1.6,1.8s-1,1.1-1.4,1.6a11.94,11.94,0,0,0,1.6.8c.5.2,1.3.5,2.4,1-1.6,1.1-3.5.2-4.3,2.1-1,2.3,1.3,2.6,2.1,4.2-2.6-1.1-2.3,1-2.9,2.3a63.74,63.74,0,0,0-5.5-3.5,1.7,1.7,0,0,0-1.4,0c-.5.3-.6.8-.8,1.3a2.45,2.45,0,0,0,.6,1.6c1.8,1.6,3.5,3.2,5.6,5l.8-3.1h.3v3.4a54.76,54.76,0,0,1-7.4-1.1,31.22,31.22,0,0,1-4.2-1.8c-.3-.2-1,.2-1.4.2.3.5.3,1.1.8,1.4,1.1.8,2.4,1.4,3.5,2.1l-.3.6c-1.3-.5-2.6-1-4-1.4-1-.3-2.6-1.1-2.9-.8a6.74,6.74,0,0,0-1.3,3.4,18.53,18.53,0,0,0,.2,4.7c.2,1.3.2,2.6.3,4.3-1.1-1.6-3.2-2.1-3.4-4.5,0-.8-1.1-1.4-1.9-2.4,1.9-3.2-.5-6.4-1.6-9.7-1-2.6-1.6-5.1-2.6-7.7-.6-1.9-1.4-3.9-2.1-5.8a4.86,4.86,0,0,0-1.1-1.4l-.6.3,4.7,19.5-.6.2c-.8-2.4-1.6-4.8-2.3-7.2s-1.1-5.1-1.8-7.7-1.3-5-1.9-7.6h-.6a6.15,6.15,0,0,0-.3,1.8c0,3.4.5,6.8.2,10.1a15.8,15.8,0,0,0,3.5,9.7c3.7,4.8,7.1,9.8,10.6,14.6a.85.85,0,0,1,.2.6Zm187.6-307c1.1.3,2.1,1.3,3.4.3a1.47,1.47,0,0,1,1.1-.2c1.1.5,1.6-.2,2.3-.8a7.63,7.63,0,0,1,1.1-.8l-1.3,3.9h7.6l-.2,3.1c-.8.8-1.4,1.8-2.3,2.7-.2.2.5,1.3,1,1.3,2.6.5,4.3-1,4.8-3.9a9.74,9.74,0,0,0,.2-2.4h.6v4.5a8.81,8.81,0,0,0,2.9-.5,54.58,54.58,0,0,0,5.5-4.3,1.9,1.9,0,0,0,.5-1.3,6.07,6.07,0,0,0-3.9-4.2c-.8,0-1.6.6-2.3.5a23.58,23.58,0,0,1-6.3-1.3c-2.3-1-3.5.3-5,1.3l1.8.6-.3.8-3.5-.6c-1.9-3.1-5.1-3.5-6.6-1-.3.7-.7,1.5-1.1,2.3l-6.3,2.4C398.5,112.3,400.6,111.3,402.2,108.4ZM259,99.9a11.78,11.78,0,0,1,2.7,2.3c1.6,1.8,3.1,3.7,4.7,5.5l.6-.3a15,15,0,0,0-1.1-3.4c-2.9-4.5-6-8.7-9.2-12.9-1.8-2.1-4.5-3.2-6.8-4.7L245.7,84h1.4a14.56,14.56,0,0,1,8,4.7,96.84,96.84,0,0,1,7.1,8.5,5.44,5.44,0,0,1,1.1,1.8l.8-.6a28.42,28.42,0,0,0-2.3-5,48.94,48.94,0,0,0-5.5-7.4c-2.4-2.6-5.8-3.2-9.2-3.1-1.8,0-3.7.2-5.5.2l-.3,1a19.45,19.45,0,0,1,9.8,6.8c-.5-1-1-2.1-1.6-3.1-.2-.3,0-.8.2-1.3,1.9,2.7,3.9,5.3,5.6,8,1.7,1.9,3.7,3.2,3.7,5.4l-4-5.1-.6.5c1.9,2.7,3.9,5.3,5.6,8.2s3.4,5.8,5,8.7c1.6-1.9,1.6-2.3.5-3.9C263.4,105.4,261.1,102.7,259,99.9ZM400,102a3.64,3.64,0,0,0-.2,1.4c.2,1,.3,1.8.5,2.7.8-.2,1.4-.5,2.3-.8a5.72,5.72,0,0,0,1.6-1.1,1.21,1.21,0,0,0,.3-1.3,2.74,2.74,0,0,0-3.7-1.4,1.82,1.82,0,0,0-.8.5,2.5,2.5,0,0,0-1.1-3.1c-1.6-1-3.2-1.9-4.8-2.9-.8-.5-1.4-.8-2.4-1.4l.2,2.4c-.6-.6-1.3-1-1.4-1.3-.8-1.6-1.9-1.3-2.7-.3a35.92,35.92,0,0,0-2.7,4.7l.3.2,1.3-1.6,1,2.1,2.4-1.9.8,1.9,3.2-1.9c-.3,1.1-.2,1.9-.6,2.4-1.3,1.3-2.7,2.1-4,3.4a10.81,10.81,0,0,0-1.8,2.3l.6.6,9.2-5.3-2.4,3.7a10.18,10.18,0,0,0,4.9-4ZM166.7,86.1c1.6-1,.8-1.9.2-3.2s-1-3.1-3.1-2.9c-.5,0-1.3-1.1-1.3-1.8,0-1.9,3.5-5,5.5-5a2.36,2.36,0,0,1,2.7,2.3,2.55,2.55,0,0,1-.2,1.3c-.6,1.6,0,2.9,1.9,4,0-1.6-.6-3.9.2-4.8,1.8-2.1,1.3-4.2,1.3-6.3,0-.2.2-.3.5-1a2.28,2.28,0,0,1,.3,1.1,14.84,14.84,0,0,0,4,10.8c.3.5,1.1.6,1.6.8a5,5,0,0,0,.5-2.1c-.6-1.8-1.4-3.4-2.1-5.1s-1.3-3.4-1.8-5c.5,0,.8.2.8.5.5,1.8.6,3.5,3.1,4,.3,0,.6,1,.6,1.3-.2,2.3,1.1,3.9,2.4,5.5a5.71,5.71,0,0,0,1.6,1.1l.3-.3L181,68.5h.2l1.4,1.8,1.1-3.5c.3,2.3,0,4.5.5,6.4a7,7,0,0,0,3.9,4.8l-1.8-5,.6-.3,2.9,3.5c.6-3.1-2.4-4.2-2.7-6.9a8.22,8.22,0,0,1,1.8,1.9c1,1.3,1.6.6,1.9-.5a2.21,2.21,0,0,0,0-1.6c-.2-1.3-.5-2.6-.6-3.9a31.82,31.82,0,0,1,1.8,3.7c.5,1.3.6,2.6,1.1,3.9a15.49,15.49,0,0,0,2.1,3.5,22,22,0,0,0,2.7,2.6l.6-.3c-2.3-3.4-1.4-6.8-.8-10.3l1.3,3.2.6-.2-.6-3.9c-.3-2.3-.3-2.3-2.6-1.4-1.8.6-2.6.2-2.9-1.6a4.51,4.51,0,0,0-1-1.4c1-1.3,2.4-1.3,3.7-1.3s2.3-.6,2.3-2.1a13.89,13.89,0,0,1,.6-1.9l.6.2a20.27,20.27,0,0,0,5.1,19.6,85.22,85.22,0,0,0-.8-8.7c-.6-4.5-.3-6.9,1.4-8.5-.2.8-.3,1.4-.5,2.3s-.6,2.1-.3,2.6c1.3,1.4.6,3.2.8,4.7a6.15,6.15,0,0,0,.2,1.9c.5,1.9,1.1,3.9,1.8,5.8l.5-.2-.2-3.4c2.9,5.1,4.2,6.9,6,5.6-1.1-2.7-2.3-5.5-3.2-8.2a13.1,13.1,0,0,1,.5-8.5,7.14,7.14,0,0,1-.2,2.1,28.5,28.5,0,0,0,.3,2.9,8.11,8.11,0,0,0,1,2.1c.5,1.8,1,3.4,1.4,5.1l.5-.2V63.1h.8v1.6a20.3,20.3,0,0,0,1.6,9.8c.5,1.1,1.1,2.1,2.7,2.1l-2.4-7.7c3.1-1.6.6-4.2,1.4-6.3a33,33,0,0,1,1.1,3.4c.3.8,1,1.3,1.1,2.1.6,3.2,1.1,6.4,3.4,9a4,4,0,0,0,1.8,1l.3-.5c-2.3-2.6-1.8-6-2.4-9a2.7,2.7,0,0,1,.5-1.1c1.4-2.7,3.5-5.1,2.9-8.5a4.48,4.48,0,0,1,0-2.3,9.5,9.5,0,0,1,.6-1.8l.5.2c-1.4,4.3-.5,8.5.5,12.7a60,60,0,0,0,3.2,9.3c.6,1.6,2.1,1.9,4,1.4a3.57,3.57,0,0,0-1-1.1,9.37,9.37,0,0,1-2.3-6.6,14.38,14.38,0,0,0-.5-3.7c-.3-1.9-.5-3.9-.8-5.8l.6-.2a1.33,1.33,0,0,1,.3.8c0,4.7,2.6,8.5,4,12.7.5,1.3,1,2.7,2.6,2.9a76.41,76.41,0,0,1-2.9-8,75.85,75.85,0,0,1-.5-8.4h.8v2.4a23.32,23.32,0,0,0,3.2,11.9,10.44,10.44,0,0,0,2.6,2.1l.6-.5a19.73,19.73,0,0,0-2.7-7.7,8.91,8.91,0,0,1-2.1-6.6l1.9,4.7c1-1.3-.2-3.5,2.4-2.9.6,1.6-.2,3.5,1.4,5l2.4-5.8,2.7,1.9.5-.8a9.82,9.82,0,0,0,1.8.8c.6-1.1,1.3-2.3,1.8-3.2l.6,4.3.5-.2,1-2.3.5.2v7.2h.2l2.1-8.7h.8c.3,1,.6,1.9,1,3.1a41.53,41.53,0,0,0,1,5.3,16,16,0,0,0,1.9,2.9l.8-.3L261.7,67c.6.8,1.1,2.1,1.8,2.1,1.6.3,1.4,1.1,1.3,2.3a9.34,9.34,0,0,0-.2,2.3,18.88,18.88,0,0,0,1.6-5.1c.3-1.8.3-3.7.6-5.6a4.51,4.51,0,0,1,1-1.4,5.34,5.34,0,0,1,.6,1.4c.5,2.3.8,4.3,1.3,7.1l1.4-2.1a6.81,6.81,0,0,0,1.9-5.5,52.08,52.08,0,0,1,0-7.9,23.34,23.34,0,0,1,.6,6.9c-.3,3.5,2.4,6.1,2.3,9.5,1.9-2.4,1.4-5.8,3.2-8.4v5l1.9-2.4c.2,1.9-1.8,3.7.8,5,1.3-2.6,2.6-5.1,3.9-7.7.6-1.4.3-2.3-1.1-2.9-2.4-1-2.6-2.9-.5-4.5a8,8,0,0,1,9-.3,3.36,3.36,0,0,1,1.1,2.3c0,.6-1.1,1.1-1.4,1.4a11.24,11.24,0,0,0-1-3.1c-.6-.8-3.1,0-3.9,1-.6-.3-1.6-1.1-1.8-1-.8.8-1.4,1.6-2.1,2.4a15.77,15.77,0,0,0,2.3,1.1,8.52,8.52,0,0,0,2.3.3c-2.1,2.1-4.2,13.2-2.9,15.9l2.3-3.7.6.2-1.1,4.7c3.2-2.1,4.3-5.3,5.5-8.5s2.1-6.6,3.2-9.8a2.94,2.94,0,0,1,.6,2.4q-1.95,6.3-4.2,12.6c-.2.6-.3,1.3-.5,2.1l.8.6,3.4-3.5c0,.3.2,1-.2,1.3-1.1,1.3-2.3,2.4-3.4,3.5s-2.4,2.3-3.7,3.4l.6.6c4.5-1.6,6.1-6.4,9.5-9.7v2.3A22.72,22.72,0,0,0,307,62.7c1.4.8,1.6,1.8.6,2.9a22.64,22.64,0,0,0-2.6,4.2c-.5,1.3-2.4,2.6-.6,4.3.2,0-.2.6-.5,1-.6.8-1.4,1.6-2.1,2.6a9.31,9.31,0,0,0-1.1,1.9l1.3.4a31.23,31.23,0,0,0,5.6-8l1.3,2.7c3.1-3.7,4-7.6,5.5-11.6a1.55,1.55,0,0,1,.3.6c-.3,1.8-.8,3.4-1.1,5.1a11.84,11.84,0,0,0,.2,2.7,3.57,3.57,0,0,0-2.1,4l-1.8,1.1.2.3,1.3-.2-3.7,3.9c5.5.2,7.6-3.2,8.8-7.7l1.4,1.6c1.3-1.8,2.3-3.5,3.5-5,1.4-1.8,1.6-4.5,4.7-5.8a8.34,8.34,0,0,1,.6,3.5c-.8,2.9-1.9,5.6-2.9,8.5a3.42,3.42,0,0,0-.2,1.3,5.77,5.77,0,0,0,1.4-.3c1.6-.6,2.3-2.4,4-3.2a16.11,16.11,0,0,0,5.1-5.6,28,28,0,0,0,2.3-5.8,9.53,9.53,0,0,1-1.4,6.8c-2.1,2.6-4.3,5.1-6.4,7.7a5.44,5.44,0,0,0-1.1,1.8l.5.3a16.09,16.09,0,0,0,5.8-5.5c-.6,2.6-2.6,4.2-4.3,6.3.5.2,1.1.6,1.3.5a23.39,23.39,0,0,0,3.1-2.4c2.4,1.9,3.1-1.9,5-1.8v3.9l.5.3c1.9-1.9,4-3.5,5.8-5.5a75.23,75.23,0,0,0,4.7-6.4l1,.5a46.8,46.8,0,0,0-6,13.7,21.48,21.48,0,0,0,7.4-8.7,8.9,8.9,0,0,1-.8,3.5c-.8,2.1-3.4,3.5-2.1,6.4,1.9-.8,1.6,1.1,2.4,2.4,1.4-1.6,2.7-2.9,3.9-4.3.8-1,1.8-2.1.5-3.5,0,0,0-.3.2-.3.6-.8,1.1-2.4,1.8-2.4a4.57,4.57,0,0,1,3.1,1.3c1.8,1.8,1.4,2.7-1,3.5a7.27,7.27,0,0,1-2.1.6l.5.3a24.42,24.42,0,0,1-1,2.4,3.93,3.93,0,0,0-.6,1.3,49.32,49.32,0,0,0-1.3,5.8c3.9-2.7,8.2-5,10.3-9.8-.6,2.4-2.9,6.1-4.5,6.9-1.3.6-1.1,1.4-.6,3.1,1.6-2.6,4.2-2.1,6.3-2.7a1.33,1.33,0,0,1,.5-.3l3.7-1.6a1.1,1.1,0,0,1-.5,1c-1.8.8-3.7,1.6-5.5,2.4a12.09,12.09,0,0,0-1.6,1.6c-.2.2.3.8.5,1.1l1.8-1h.5l1.1,1.4c3.4-1.9,7.2-3.2,9-7.2-.8,3.9-4.2,5.5-6.8,8.2,1.9.3,3.2,0,4-1.4s1.8-1.3,3.2-.3l-2.7,4.7a2.87,2.87,0,0,0-.6,1.1c.5.2,1,.6,1.3.5a39.58,39.58,0,0,0,4.7-2.1c1.4-.8,2.7-1.9,4.2-2.7a3,3,0,0,1,1.3-.2l2.9-.2.2-.8c-2.3-1.8-4.5-3.4-6.8-5.1-4.2-3.2-8.4-6.4-12.6-9.8-2.9-2.3-5.5-4.7-8.4-6.8-2.3-1.8-3.9-4.8-7.4-4.7-.3,0-.6-.5-1-.8h.5a12.37,12.37,0,0,0,.2-1.8c-.5-.6-1.1-1.6-1.8-1.6-1.6,0-1.8-1.1-2.4-2.1-1-1.4-2.3-2.9-3.4-4.3s-2.7-2.9-3.9-4.5c-.8-1.1-1.4-1.3-2.9-.8-3.9,1.1-8,1.9-11.9-.5-1.4-.8-2.1-1.9-1.4-3.5a3.19,3.19,0,0,1,3.5-2.3q3.15.75,6.3,1.8c.6.2,1.3.3,1.8.5l.3-.5c-2.9-3.2-5.5-6.8-8.5-9.8-3.4-3.5-7.2-6.8-10.8-10a19.42,19.42,0,0,0-3.1-2.6c-4.2-3.1-8.5-6-12.7-9.2a57.05,57.05,0,0,0-14.3-7.4,24.24,24.24,0,0,0-4.5-1c-3.5-.5-7.2-1.8-10.8-1.4-10.1,1.3-20.3,2.9-29.1,8.5a2.91,2.91,0,0,0-1.1,1.1c-1,2.3-6,4.8-8.5,4.7a6,6,0,0,0-3.7.8,126.48,126.48,0,0,0-11.6,9.2c-4.7,4-9.3,8.4-13.5,12.7A160,160,0,0,1,187,58c-3.1,2.3-6.1,4.3-9.2,6.4a35.06,35.06,0,0,1-4,2.7c-2.7,1.6-5.5,2.9-8.4,4.3-1.9,1-3.9,2.1-6,3.1-1.3.5-2.9.5-4.2,1-3.7,1.3-7.4,2.4-11.3,3.4-9.8,1.8-19.6,3.4-29.4,2.7a6.89,6.89,0,0,0-6.1,2.4c1.8,0,2.6.5,1.9,2.3a19.86,19.86,0,0,0-.6,8.4h.6l.8-4h.6l1.1,1.9,1.6-6.8c2.3,2.6,2.3,2.9,1.1,5a5.46,5.46,0,0,0-.6,1.8c-1,2.4,1,3.9,2.1,6.1-.2-3.9-.3-7.4,1.8-10.5a4.49,4.49,0,0,1,.5,1.9v2.3a6.37,6.37,0,0,0,1,1.8,7,7,0,0,0,.6-1.9,16.15,16.15,0,0,0,.2-3.1h.6c.2.8.3,1.4.5,2.3a9.82,9.82,0,0,0,.8,1.8c.6-.5,1.1-1,1.6-1.4a1.9,1.9,0,0,0,.5-1.3c.6-2.4,3.5-2.6,4.8-4.2.2-.2.5,0,.8,0l3.2-.5c2.3,1.4.5,4.3,1.9,6.3l.8-2.9h.6a9.71,9.71,0,0,0,0,3.4,3.89,3.89,0,0,0,1.1,2.1c.2.3,1,0,1.6-.2a20.79,20.79,0,0,1-.3-2.3,3.33,3.33,0,0,1-.6-1c-.5-1.6-.8-3.4-1.3-5l.6-.2,2.4,6,.6-.3A5.23,5.23,0,0,1,141,90c.2-2.3.3-4.5.6-6.8,0-.3.6-.8,1.1-.8s.6.5,1,.8l-1.4,1.6a22.5,22.5,0,0,1,.8,2.4c.3,1.4.5,3.1.8,4.5.2.5.8.8,1.3,1.1a6.28,6.28,0,0,0,.3-1.9c-.5-2.3-1-4.5-1.6-6.8l.2-.2,2.9,4.3.8-.3c-.3-1.4-.6-2.9-1-4.3-.5-2.7-.3-3.2.6-4,0,6,2.7,10.1,6.6,10-.8-2.9-4-5.1-2.9-8.7l1.6,3.1.6-.3-.6-2.9c1.3,1.6,2.1,3.5,3.4,5a10,10,0,0,0,4.5,3.9c-1.4-1.9-3.1-3.5-4.5-5.5a6,6,0,0,1-.5-6.9,15.19,15.19,0,0,0,1,4.7,13,13,0,0,0,3.1,3.5c1,1,2.1,1.9,3.1,3.1l.3-.3c-1.4-2.7-4.3-4.5-5.1-8.4l3.5,3.9,1.3-2.6h.5c.2,2.3-.5,5.2,3.4,4.9Zm68.2,231.7,1,.2c0,.8-.2,1.6-.2,2.4-.3,1.3-.8,2.4.8,3.2.3.2.2,1,.2,1.6a7.84,7.84,0,0,0,.2,2.1,5.67,5.67,0,0,0,1,1.3,4.49,4.49,0,0,0,1-1.3c.5-1.4.8-2.9,1.3-4.7,1.9,1,2.4-.5,3.1-1.8a3.32,3.32,0,0,0,.5-1.6c.5-2.1,1-4.2,1.6-6.4a3.65,3.65,0,0,1,.8,2.4c-.2,1.8-.8,3.5-1,5.3a12.78,12.78,0,0,0,1.6,6.9l1.4-2.9.5.2-1.9,9.2c2.4-1.9,4-3.9,4.2-6.8,0-1.6.2-3.2.3-4.8.3-1.8,1-3.4,1.4-5a5.84,5.84,0,0,0,.2-1.8h.6c.5,3.9-1.3,7.9,1.3,11.6l1.9-5.1.5.2-.8,6.4.6.2,1.8-3.4a1.2,1.2,0,0,1,.2.8v.8l.8.2c2.3-2.6,1-6.4,2.7-9.5a8.08,8.08,0,0,1,.5,2.7,28.49,28.49,0,0,0-.3,2.9l.8.2a26.56,26.56,0,0,0,2.6-10.3c.2.8,0,1.6.2,2.3a6.7,6.7,0,0,0,1.1,1.8,12.86,12.86,0,0,0,1.9-2.1,1.7,1.7,0,0,0,0-1.4c-.2-2.4-.5-5-.8-7.7A19.23,19.23,0,0,1,273,317c0,.8.8,1.4,1.1,2.3a16.66,16.66,0,0,0,1.1-2.3v-.8c-.2-2.6-.3-5.1-.6-7.9l.2-.6,1,2.7.6-.6.5-1.6h.3l1.3,7.4,1-.2c0-1.1-.2-2.1-.2-3.2a13.68,13.68,0,0,1,.2-2.9l.5.2,1.9,3.9.6-.2a11.4,11.4,0,0,1,.2-2.6,6.93,6.93,0,0,0-.3-5.3,14.28,14.28,0,0,1-.3-2.9l.6-.2c-.6-.8-1.4-1.6-2.1-2.6a37.11,37.11,0,0,1-2.3-3.2,45,45,0,0,0-2.3-4.3c-1-1.4-1.9-2.3-2.7-3.5-1.1-1.6-2.3-2.9-4.7-2.4s-3.4-.8-2.6-3.4a3.22,3.22,0,0,0-.6-2.3,46.94,46.94,0,0,0-5.8-3.5c-3.7-1.9-8-3.2-11.3-5.8-4.7-3.7-10-4.5-15.4-4.2-4.5.2-8.5,2.7-12.4,5a.36.36,0,0,1-.2.3l1.1,1.4c-1,1.9-2.6,2.1-4.2,2.4a6.17,6.17,0,0,0-3.1,1.6c-2.7,2.9-5,6.1-8,8.7s-5.8,5.1-9.7,5.8c-.5.2-1,.5-1.1,1-.8,2.6-1.6,5.3-2.3,7.9-.2.3.2.8.3,1.1a9.32,9.32,0,0,0,1-1,35.43,35.43,0,0,0,2.6-4.7l.5.2a3.64,3.64,0,0,1,.2,1.4,60.49,60.49,0,0,1-2.3,6.8c-.3,1.3-.3,2.6,1.4,3.2a3.93,3.93,0,0,0,.3-1.4,53.51,53.51,0,0,1,1.1-5.5c.2-.5,1-1.4,1.3-1.3,1.3.2,1.4-.5,1.8-1.4a10,10,0,0,1,2.3-3.1c.3-.3,1-.3,1.9-.5a8.64,8.64,0,0,0-1,1.6c-.8,2.4-1.6,4.8-2.3,7.2-.2.8.6,1.9,1,2.7.6-1,1.3-1.9,1.9-2.9a46.93,46.93,0,0,0,2.1-4.5l.5.2a68.17,68.17,0,0,0-2.3,7.7c-.6,3.2-.2,6.9,1,7.9.2-1.1.5-1.9.6-2.9.3-1.8.3-1.8,1.6-1.6v2.3l.6.2,3.4-8.4c0,1.3-.3,2.1,0,2.6.8,1,.2,1.8-.2,2.6-.6,1.9-1.1,3.9-1.8,5.8,0,.2.2.3.3.5l1-.6,1.1,1.4,1.4-3.2.3.2-1,6.1h.3l4.8-7.1,2.7-.2c-.3,1-1,2.1-1.3,3.2-.2.8-.6,1.9-.2,2.4a4.88,4.88,0,0,1,1.1,4.2c0,.3.5.6.6,1,.3-.3,1-.5,1-.8.6-1.6,1.1-3.2,1.6-4.7.2-.3.5-1,.6-1,1.6.2,1.6-1,1.6-1.9a18.93,18.93,0,0,1,.6-1.8,3.75,3.75,0,0,1,0,2.1c0,.6-.2,1.6.2,1.8,2.1,1.4,1.1,3.4,1.1,5.3a20.27,20.27,0,0,0,1.3,8.4Zm-31.8,53.4h.5c.2,1.3,1,2.7.5,3.5-.6,1.1-.5,1.3.5,1.8a1.68,1.68,0,0,1,.6,1.1c1.3,3.9,2.6,7.7,3.7,11.6,1.1,3.4,2.1,6.9,3.2,10.3a9.73,9.73,0,0,0,1.1,2.3h.8c1.4-6.4,1-13,3.1-19.3L216,394.6c3.9-1.1,9.5-10.9,7.9-13.2l-1.6,1.4a3.2,3.2,0,0,1,.3-2.1c.6-2.6,2.1-5.1,1.9-7.7-.2-3.2-1.4-6.4-2.3-9.7-.3-1.3-.5-2.4-.8-3.7l.5-.2,3.4,9.7.6-.2a3.93,3.93,0,0,0,.3-1.4,40,40,0,0,0,.6-14.2,8.88,8.88,0,0,1,1.6-6.9,1.43,1.43,0,0,0-.2-1.3c-.5-.3-1-.6-1.4-.8l.5-.3c-.6-.6-1-1.6-1.8-1.9-2.7-1-5.6-1.8-8.4-2.7-1.6-.6-3.1-1.4-4.7-2.1l.3-.8a21.52,21.52,0,0,1,2.7,1c3.5,1,6.9,1.8,10.5,2.6.3,0,.8-.6,1.3-1a4.49,4.49,0,0,0-1-1.3,4.84,4.84,0,0,0-1.8-.3,43.41,43.41,0,0,1-12.4-3.1,9.87,9.87,0,0,0-7.7-.8,54.22,54.22,0,0,0-12.2,6.3c-8,5.5-16.3,10.5-25.9,12.7a1.82,1.82,0,0,0-1.6,2.4c.5,3.5.6,7.1,1.3,10.8s1.4,6.6,2.1,10h1l3.4-11.7h.6a6.61,6.61,0,0,1,.3,2.4c-.8,4.5-1.9,8.8-2.6,13.4a11.91,11.91,0,0,0,.3,5.3,70.68,70.68,0,0,0,3.9,8.4c1,1.6,1.9,3.2,3.1,4.8.5-.6,1-1,1.1-1.4.8-3.7,2.7-7.1,1.4-11.1a5.77,5.77,0,0,1,2.9-6.9,11.05,11.05,0,0,0,4.2-5.5c1.8-4,3.2-8,4.8-12.2.5-.8,1-1.4,1.4-2.1l.6.3a12.5,12.5,0,0,1-.3,1.9c-1.4,4.7-2.9,9.2-4.3,13.8-.5,1.8-1.1,3.5.8,5a14.3,14.3,0,0,1,1,1.9l-2.6-1.9a11.82,11.82,0,0,0-.6,1.3c-2.1,4.8-.8,9.5.3,14.2a8.14,8.14,0,0,0,2.1,3.1c1.1,1.1,2.3,2.1,3.4,3.1l-.2.2-4.2-3.2c.2,5.5,3.4,14.2,7.2,19.6a10.7,10.7,0,0,0,1.3-3.1c.5-6.6,1-13.2,1.1-19.8a38.54,38.54,0,0,1,.2-4.8c.5-4.5.3-9,.5-13.7.2-3.4.3-6.8.5-10.1l2.3,6,.5-.2Zm-81.8-44.9h.5c.2,1.1.3,2.3.5,3.4.2,1.4.5,2.9.8,4.3a2.35,2.35,0,0,0,1.1,1.1c.2-.5.3-1,.5-1.4,0-1.6-.3-3.1-.2-4.7,0-.5.6-1.1,1-1.6a11.94,11.94,0,0,1,.8,1.6,17.18,17.18,0,0,0,1.1,2.9c.3.6,1.1,1.1,1.3,1.8.8,3.5,3.9,3.2,6.4,4l-1-9.2h.3l1.6,4,1.1-2.4.5.2a5.24,5.24,0,0,0-.2,1.8,62.57,62.57,0,0,0,1,7.4c.3,1.8,1.8,2.1,3.4,1.4-1.9-2.6-1.4-5.5-1-8.4l.6,4.5h.5l1-4.3c.3,1.9,0,3.9,2.4,5,1.3.6,2.1,2.3,3.4,3.7l.5-7.1c.5,2.6,1,5,1.4,7.4.2.5.6.6,1,.8.2,0,.6-.5.8-.8.3-1.3.6-2.6,1-4a4.7,4.7,0,0,1,.8,2.6c.2.6.2,1.3.5,1.6a2.32,2.32,0,0,0,1.6.2,2.59,2.59,0,0,0,.3-1.9,47,47,0,0,0,.2-5.3c.6,1.8,1.3,3.4,1.9,5,.3.6,1,1,1.4,1.4a5.23,5.23,0,0,0,.3-1.8,4.78,4.78,0,0,1,1-4.7l-.2,3.7.6.2a19.91,19.91,0,0,0,6.1-10.8,1.08,1.08,0,0,1,.2.8c-.5,1.8-1,3.5-1.6,5.1s.5,2.1,1.3,2.6c.2.2,1.3-.6,1.6-1.1,1-1.3,1.9-2.9,2.9-4.2l1,2.3-2.3,3.4.5.3c3.5-2.1,5.3-5.8,7.7-8.8l-.6,2.6.3.3c.5-.3,1.3-.6,1.4-1,1.1-2.3,1.9-4.3,3.1-6.6.2-.5.3-.8.5-1.3l.6.2a21.19,21.19,0,0,1-1.4,4,2.41,2.41,0,0,0,.5,3.4,1.33,1.33,0,0,0,.5.3l2.3-2.9.3.2-.8,2.3.5.3a21.87,21.87,0,0,0,5.1-8c.2,3.5-2.1,6.3-4,9.3,3.4-.5,3.5-3.5,5.3-5.1,1.1,2.1-.5,3.4-1.3,4.8l.3.3,5-4.2,2.1,1.6a10.18,10.18,0,0,0,1.1-2.6c.2-.3-.3-1-.6-1.4-2.4-3.1-4.8-6-7.2-9-.5-.6-1-1.6-.8-1.9.6-1.3-.2-1.9-.8-2.6-1-1.1-1.9-2.3-2.9-3.4-1.3-1.4-2.3-3.1-4-2.6a13.81,13.81,0,0,0-2.7-2.7,35,35,0,0,0-5.1-2.6,3,3,0,0,0-3.4.3,2.73,2.73,0,0,1-3.9-.2,1.91,1.91,0,0,1-.5-1A3.08,3.08,0,0,0,165,297H150.2a9.37,9.37,0,0,0-6.3,2.4,2.8,2.8,0,0,1-3.7.5c-1.3-.8-2.3-.6-2.9.8a2,2,0,0,1-1.1.6c-5.1,0-9.7,2.3-14.2,4.7-.3.2-.6.3-1,.6-1.3,1.9-2.6,3.9-4,5.6s-3.1,3.4-4.5,5l-3.4,3.5c2.4.2,2.7,1.6,3.2,2.9.3.8,1.4,1.4,2.1,2.3l1.3-2.1,2.3-.2c.3,1.8.5,3.4.8,5,0,.3.5.6.8,1,.2-.3.6-.6.6-1C121.3,328.1,121.3,327.3,121.3,326.3Zm158.8-112a2.34,2.34,0,0,1,.5-3.1c.2-.2.2-.2.3-.2,1.8-1,2.3-2.7,2.7-4.8l-3.4,1.4,2.3-3.2-5.5,1.4c-.2-1.9,3.7-2.4.8-4.3a27.82,27.82,0,0,0,2.1-2.7c.2-.3,0-1-.2-1.3l-1.1.5-2.6,1.1-.3-.5,4.3-3.2-.5-.6-3.9,2.7-.3-.5,2.1-3.5-.2-.5a21,21,0,0,1-2.4.6h-1.1a2.15,2.15,0,0,1,.2-1.1,3.48,3.48,0,0,1,1.3-1.1c.6-.8,1.4-1.4,2.3-2.4h-2.4l.3-4.8-2.7.5,2.1-4.2-.6-.3c-.5,1.8-3.7,1.4-2.7,3.9a15.73,15.73,0,0,1-1.8,1.9,3,3,0,0,1-1.4.5c-.8-.5-1.6-1-2.4-1.4l-.3.5c1.1,1.3,1.9,3.1,3.7,3.5a37.85,37.85,0,0,0,5.8.5l-5,3.2v.6l5.3,2.7-.3.6-4.5-1.6a10.23,10.23,0,0,0-.8,2.1,46.31,46.31,0,0,0,4.3,2.4c-.2.2-1,.8-1,1.4s1.1,1,1.8,1.4a5.84,5.84,0,0,1-1.8.2c-3.1.2-3.1.2-1.8,3.1l-5.5-1.6c2.7,2.4,6.1,2.9,9.2,3.7l-2.6,2.7,4.2,1c-3.2,1.8-6-.3-8.8-.5,2.9,2.9,6,5.5,10.5,5.1-.3,1.4-1,1.6-3.4,1a37,37,0,0,1-4-1.3l-.3.5,5.8,3.5c-4,.2-6.8-2.4-10.3-4.2a11,11,0,0,0,.3,1.1c1.6,1.4,3.4,2.9,5,4.3.6.5,1.6.8,1.9,1.4,1.1,2.3,1.9,2.9,4.5,2.7a5.93,5.93,0,0,1,2.3.5c-2.6,1.8-4.7,0-7.1,0l-.3.6,5.3,3.7c-4,.2-6.6-2.9-10-4.5a3.53,3.53,0,0,0,.6,1.9c3.4,2.6,6.1,6.8,11.4,6.3-.8.6-1.8,1.3-2.6,1.1a12.88,12.88,0,0,1-3.9-1.6c-1.4-.8-2.7-1.8-4-2.7l-.5.5a8.16,8.16,0,0,0,1.4,2.6,35.06,35.06,0,0,0,5.3,4,9.59,9.59,0,0,0,4,1.1c.6,0,1.3-.8,1.8-1.1a3,3,0,0,1,1.1-.6c1.8-.8,3.5-1.4,5.1-2.3a6.56,6.56,0,0,0,1.9-1.8l-.2-.5a14.79,14.79,0,0,1-9.3-.6l4.7-6.6a6.82,6.82,0,0,1-2.3-.5c-1-.3-2.1-.8-.6-1.9s2.9-2.1,4.2-3.2c1-.8,1.9-1.6,2.9-2.4l-.3-.5-5.6,2.7c-2.6,1.3-3.4,1-4.5-1.8a27.34,27.34,0,0,0,4.8-1,4.66,4.66,0,0,0,2.6-4.2l-3.7,2.9-.5-.5c.6-.8,1.1-1.8,1.8-2.6,1.3-1.8,2.7-3.4,3.9-5.1a4.53,4.53,0,0,0,.3-1.6l-.5-.2a16.82,16.82,0,0,1-7.2,9.1Zm-5.3,126.3-.2.6-7.9-1.8-.3.8,3.7,2.6v3.4l-3.4,1,.2.6,2.3,1-.3.8-5.8-2.4a16.13,16.13,0,0,0,3.1,3.9,31.3,31.3,0,0,0,5.1,1.9c-4.3,1-6.8-2.6-10.5-3.1,2.1,4.5,5.8,6.6,9.8,8.2a7.61,7.61,0,0,1-6.1-1.6v3.9l-.6.2-4.7-4.7-.5.6a15.47,15.47,0,0,0,9.2,6.4l-3.5,2.1c2.6,2.3,5.8,2.1,9,1.3.3,0,1,0,1,.2,1.4,3.1,3.9,1.4,5.8,1.3a11.86,11.86,0,0,0,3.4-1.6l-.3-1h-6.8c-5.5,0-5.5,0-6.6-1.4l6.6-.3.5-2.6h-7.7c4.5-1.6,10-.6,12.7-6a21.28,21.28,0,0,1-9,1.1,1.82,1.82,0,0,1,1.1-1c1.6-.5,3.4-.8,5-1.3a3.06,3.06,0,0,0,2.6-3.1c-1.9.3-3.7.8-5.6,1.1-2.6.3-4.3-.3-5.3-1.3,3.9-1,8.4.5,11.7-2.9l-.2-.6-7.1,2.3-1.8-3.1,6.1-1.4-1.9-3.1c4-1.4,8-2.7,8.2-8a2.76,2.76,0,0,0-1.3,1.1c-.8,1.3-1.3,2.6-2.1,3.7a3.86,3.86,0,0,1-1.9,1,14.15,14.15,0,0,1-2.9.2c-.6,0-1.8,0-1.8-.2-.5-1.4-1.1-1.9-2.7-1.6-1.1.2-2.4.3-3.5.5v.8Zm5.2-62.4c-.2-.2-.3-.3-.3-.5a13.43,13.43,0,0,1-1.3-2.7c0-.3,1.3-.8,2.1-1.1,1.3-.5,2.6-1,4-1.6l-2.6-1.6,7.9-3.2-.3-.6a38,38,0,0,0-5.1,1.3c-4.2.8-4.2.8-5.3-.8l3.4-1V266l-2.7-.8a4.11,4.11,0,0,0,.3-.8c2.1-.6,2.1-2.3,2.1-4.2a2.17,2.17,0,0,1,1-1.9,24.81,24.81,0,0,1,3.5-1.3c1.8-.6,3.7-1.4,5.5-2.1l-.3-.8c-2.6-.3-4.3,2.6-7.4,2.3a12.4,12.4,0,0,1,2.1-1.8c.8-.5,1.8-.8,2.7-1.3a12,12,0,0,0,1-1.1,1.63,1.63,0,0,0-.3-.6c-.3.2-.8.3-1.1.5a14.36,14.36,0,0,1-4.7,2.1c-2.6.3-5.8,1.8-7.4-2.1,0-.2-.5-.2-.6-.3-1.8-.8-3.5-1.8-5.3-2.6a24.43,24.43,0,0,1-2.4-1,2.68,2.68,0,0,0,.8,3.4c.2,0,.2.2.3.2,1.4.8,2.9,1.8,4.3,2.7.8.5,1.6.8,2.4,1.3a5.23,5.23,0,0,0,1.8.3c-2.7,2.3-4.7-.2-7.4-.2l6.9,5.5c-4.7-.5-7.4-3.9-10.5-6.8.2,5.3,5,6.4,8.7,8.8l-4.2.6-.2.6,5,3.7-3.4.7-.2.5-6.1-5.5c0,3.4,3.9,3.4,4.7,6a18.47,18.47,0,0,1-2.9-1.3,4.4,4.4,0,0,0-1.6-.2c.2.5.2,1.1.6,1.4a45.26,45.26,0,0,0,4,2.6c.6.3,1.4,1,1.4,1.3-.3,2.1,1.3,2.3,2.4,2.7a9.13,9.13,0,0,1,1.3.8l-.3.5c-4.3-.6-7.7-3.2-11.3-5.8a7.18,7.18,0,0,0,2.1,3.2c1.6,1.3,3.5,2.3,5.3,3.5C275.5,280.8,276.9,280.8,280,278.2Zm35.5-151.1v.3a60,60,0,0,1,6.4,2.1,23.87,23.87,0,0,0,9.5,1.4,25.49,25.49,0,0,1,3.9.2,39.68,39.68,0,0,0,8.5.5,74.26,74.26,0,0,0,11.1-2.6,7.11,7.11,0,0,1,2.1-.3c3.1.3,6.1,1,9.2,1.6,5.3,1.3,10.6,2.6,16.3,1.9,4.2-.5,8.2-1.1,12.2-1.8a69.87,69.87,0,0,0,8.7-2.3c-2.3-.6-4.5-.5-6.4-1-4.2-1-8.2-.2-12.2.3-6.1.8-12.2,1.1-18.2-1.3a13.3,13.3,0,0,0-9.8-.5,49,49,0,0,1-9.7,2.9,43.29,43.29,0,0,1-10.8.5c-3.1-.2-6.1-1.4-9.2-2.1a52.11,52.11,0,0,0-6.9-.5,35.44,35.44,0,0,1-4.7.7Zm-67.6-18.2-.3.5c-.3-.2-.5-.3-.8-.5-4.8-3.5-9.8-6.9-14.5-10.6a48.92,48.92,0,0,0-12.1-6.6,38.41,38.41,0,0,1-7.6-3.2c-2.7-1.9-5-1.1-7.6-.3a1.14,1.14,0,0,1,.3.6c2.3,2.3,5.1,2.7,7.9,3.5a55.47,55.47,0,0,1,14.8,6c4.3,2.6,8.7,5.5,13,8.2a36.8,36.8,0,0,1,5.1,3.7,4.82,4.82,0,0,0,2.9,1.9,2.43,2.43,0,0,1,1.4,1c.2.3-.5,1-.8,1.4l3.4,1.3c-.5-1.3-.8-2.1-1.1-3.1-2.3-4.2-4.3-8.4-9.2-10.3a28.27,28.27,0,0,1-4.5-3.2c-3.9-2.7-7.9-5.3-11.9-8a25.45,25.45,0,0,1-5.3-4c-1.9-2.1-3.5-2.6-6.6-.6,6,3.4,12.1,6.3,17.5,10,5.7,3.6,10.9,8.1,16,12.3ZM288,121l.2.5a69.84,69.84,0,0,0,9-2.3c4.7-1.4,9.3-3.2,14.2-4.7a70.23,70.23,0,0,1,9-2.4c4.5-1.1,9.3-.5,14-1.9s8.2-4.2,12.6-6c.2,0,.3-.3.3-.5l4.8-5.5c-1-.2-2.1-.6-2.9-.3-3.2,1.4-6.6,2.7-9.2,5a19.46,19.46,0,0,1-13,4.7c-5,.2-9.5,1.9-14.3,2.4a7.58,7.58,0,0,0-1.6.6,47.21,47.21,0,0,1-7.1,4.2c-4.3,1.8-9,3.2-13.5,4.8A9.34,9.34,0,0,1,288,121Zm84.5-10.8-.2-.5a10.69,10.69,0,0,0-4-.3c-3.1.8-6.1,2.3-9.2,3.1-4,1-8,1.1-12.1,1.9a42.2,42.2,0,0,0-7.7,1.6c-4.2,1.6-8,3.7-12.2,5.5-5.5,2.3-11.3,2.1-16.9,1.8a62.54,62.54,0,0,0-15.6,1.4,8,8,0,0,0-1.6.8l.2.6c4.8,0,9.7.2,14.3,0s9.3-1.3,14.2-1.6c8.4-.5,15.8-3.7,23.3-6.9a25,25,0,0,1,8.8-2.7c5.6-.3,10.9-2.3,16.3-3.5a26.71,26.71,0,0,1,2.4-1.2Zm-176.2,11,.2-.6a1.91,1.91,0,0,0-1-.5c-3.1-1-6.3-1.9-9.3-2.6-5-1.1-9.7.2-14.5,1.1-5.5,1.1-10.8,2.9-16.4,2.1a11.4,11.4,0,0,0-4.5.2c-2.1.5-4,1.4-6.1,2.1-3.1,1-6.1,1.9-9.2,2.7,2.6,1.9,5.3,3.2,9,1.1a20.06,20.06,0,0,1,10.3-2.9c5.1.2,9.8-1.6,14.6-3.2a13.3,13.3,0,0,1,4.5-.8c5.8.3,11.7,1,17.5,1.3C193.1,121.3,194.7,121.2,196.3,121.2Zm97.3,8.3c3.9.8,7.7,2.7,11.9,1.3a3.64,3.64,0,0,1,1.4-.2c4.8,1,9.5,1.9,14.3,2.9a59.33,59.33,0,0,0,7.2,1c4.7.2,9.5,0,14.2.2a62.57,62.57,0,0,1,7.4,1c2.1.3,4.7.5,6.1,1.8,1.8,1.6,3.2.5,4.8.6l-.3-1.6c4.7,1.1,5.1,1.1,6.6.3l-9.8-4a9.73,9.73,0,0,0-7.1-.6c-4.7,1.4-9.3.6-13.8.6-1.3,0-2.6-.3-4-.3h-3.7a18.64,18.64,0,0,1-2.6-.3c-1-.2-2.1-.3-3.2-.5a53.58,53.58,0,0,0-7.7-1.8c-3.4-.3-6.6-.3-10-.3a21,21,0,0,0-2.4.6v.5a10.42,10.42,0,0,1-3.4-1.1c-1.8-1.7-3.8-1-5.9-.1ZM181.8,108v-.6a4.76,4.76,0,0,0-1.4-.5c-2.6-.2-5-.3-7.6-.3-4.3.2-8.7.3-13,.6s-8.2.8-12.4,1.3a18.47,18.47,0,0,0-6.6,1.3,10.2,10.2,0,0,1-6.4,1.3c-5.6-1.1-11.3.5-16.9.5a1.52,1.52,0,0,0-1.1.6c-.2.3.2,1.1.3,1.1,1.6.6,3.4,1.6,5,1.4,2.7-.3,5.5-1.4,8.2-1.9,3.4-.6,6.9-.6,10.3-1.3a129.64,129.64,0,0,1,27.8-1.9C172.6,109.7,177.1,108.6,181.8,108Zm141-18.1c-2.9.3-5.5.6-7.9.8-.3,0-.6.3-.8.5-1.1.6-2.3,1.3-3.4,1.9-3.1,1.8-6.4,2.9-9,5.1-5.3,4.5-10.1,9.7-15.1,14.5a5.34,5.34,0,0,0-.6,1.4,3.85,3.85,0,0,0,2.6-.8c5.6-4.2,11.1-8.4,16.7-12.6,3.4-2.4,6.6-5.3,10.8-6.4A10,10,0,0,0,322.8,89.9ZM212.5,113.8a36.53,36.53,0,0,0-16.1-.6,40.47,40.47,0,0,1-15.9-.3,25.43,25.43,0,0,0-10.6-1,20.3,20.3,0,0,0-8.4,3.5,12.75,12.75,0,0,0,3.9,0,64.54,64.54,0,0,1,11.4-1.4,46.81,46.81,0,0,1,10.5,1.6,64.76,64.76,0,0,1,8.2,2.6,9,9,0,0,0,5.6.2c2.9-1.1,5.8-2.3,8.8-3.4A14.44,14.44,0,0,1,212.5,113.8Zm-58.4-12.1a36.92,36.92,0,0,1,5.6-1.9,11.88,11.88,0,0,1,5.3-.2,34.62,34.62,0,0,1,5.6,2.3,23.58,23.58,0,0,0,13.4,1.6,31.55,31.55,0,0,1,9.7,0c4,.6,7.9,2.3,11.9,3.1a58.26,58.26,0,0,0,7.2.6l.2-.6c-3.9-1.4-7.7-2.7-11.6-3.7-4.5-1-9-1-13.5-1.6-2.1-.3-4-1-6-1.3-5-.6-10-1.3-15.1-1.9-4.6-.8-8.8-.4-12.7,3.6ZM246.2,112l.2-.5a11.75,11.75,0,0,0-2.3-2.1c-4.5-2.9-9-5.5-13.5-8.4a46.15,46.15,0,0,0-12.9-6.1c-4.8-1.3-9.8-2.4-14-5.6-1-.8-1.9-.6-2.9.6a10.81,10.81,0,0,0,2.3,1.8c2.1,1.1,4.2,2.1,6.4,3.1,4.7,2.1,8.7,5.6,14.3,5.8a4.24,4.24,0,0,1,1.9.6c3.5,2.1,6.9,4.2,10.3,6.1,2.6,1.4,5,2.9,7.6,4.2A9.1,9.1,0,0,0,246.2,112Zm53.7-4.5.3.5a15.67,15.67,0,0,0,2.6-1c4-1.4,8.2-2.7,12.2-4.2a20.07,20.07,0,0,0,3.9-1.9c2.9-2.6,5.8-5.1,9.8-6.1a3.93,3.93,0,0,0,1.3-.6c-1.3-3.5-3.9-4.3-6.6-1.9a14.79,14.79,0,0,1-8.5,4.3c-.5,0-.8.3-1.3.5-3.1,2.1-6.3,4-9.2,6.3A42.77,42.77,0,0,0,299.9,107.5ZM191.5,123.2c-5-.5-9.3-.8-13.5-1.4a17.23,17.23,0,0,0-9.5,1,30,30,0,0,1-12.1,2.7,23.76,23.76,0,0,0-10.9,2.7c-.8.3-1.4,1-2.4,1.4,2.9,1.4,5.5,3.2,8.5,1,.6-.5,1.3-1,1.9-1.6a10.46,10.46,0,0,1,7.7-2.9c5,0,10.1.2,15.1-.2,4.7-.3,9.3-1.1,13.8-1.8.4,0,.6-.4,1.4-.9Zm170.2-.1a40,40,0,0,0,7.7.6c5.3-.3,10.6-1.1,15.8-1.6,4.5-.3,9.2-.6,13.7-1,1.4-.2,2.9-.3,4.3-.5l.2-.5a15.74,15.74,0,0,0-2.9-1.6,41.93,41.93,0,0,0-5.1-1.1,6.17,6.17,0,0,0-2.3-.2,38.21,38.21,0,0,1-5.6,1.4c-6,.5-12.1.8-18,1.3-2.7.3-5.2.6-7.8,3.2ZM162.2,112l-.2-.8c-4.7.3-9.3.6-13.8,1.3-4,.5-8,1-11.9,1.6-2.3.3-4.5,1-6.8,1.3-3.5.5-7.1,2.7-10.8.6l-.3.3a6.21,6.21,0,0,0,5.5,1.9c2.7-.3,5.5-.5,8.2-.6,2.1-.2,4-.3,6.1-.5,4.3-.5,8.7-1.1,13.2-1.6a29.19,29.19,0,0,0,10.8-3.5Zm220.7.1.3-.6c-1.1-.8-2.1-2.1-3.2-2.1a7.07,7.07,0,0,0-4,1.3,23.26,23.26,0,0,1-9.5,3.5c-2.9.3-5.6,1.8-8.4,1.8a36.08,36.08,0,0,0-13.4,3.2,30,30,0,0,0-4.3,2.3l.2.5C354.9,120,368.8,115.2,382.9,112.1ZM219,107.6l.2-.3a1.33,1.33,0,0,1-.3-.5c-4-2.3-7.9-4.8-12.1-6.8a18.42,18.42,0,0,0-7.6-1.8c-4-.2-8,.2-12.1.2a9.84,9.84,0,0,1-4.7-1.1c-2.9-1.9-6.3-2.1-9.7-2.4a15.67,15.67,0,0,0-5.3,1.1l.2.8c2.9.5,5.6,1.1,8.4,1.4,3.4.5,6.8.6,10.3,1.1a14.71,14.71,0,0,0,2.7.6c2.6.3,5.1.5,7.9.6,5.3.2,10,2.4,14.8,4.2,2.6,1,5,2,7.3,2.9ZM151.9,359l1.8,1.3A22.94,22.94,0,0,0,151,363c-.2.2.2,1,.5,1.3a11,11,0,0,0,1.4,1.1l-1.6,1.4.6.8-1.6,1.3a7.1,7.1,0,0,1,1.4,1c.4.4,1,.6.8.8a2.09,2.09,0,0,1-.8,1,7.27,7.27,0,0,1-2.1.6c.6.5,1.8,1,1.9,1.6.2,1.9,1.1,1.3,1.9.6,1.8-1.4,3.4-2.9,5.1-4.3.3-.3.3-.8.6-1.6a4.78,4.78,0,0,1-1.8.6,3.64,3.64,0,0,1-1.4.2,4.11,4.11,0,0,1,.8-1.3c.6-.6,1.3-1.4,2.3-2.4l-3.4.6-.2-.5,5.8-6.1-.5-.5c-1,.8-2.1,1.4-3.1,2.3a4.13,4.13,0,0,1-1.9.2,4.6,4.6,0,0,1,1-1.8c1.3-1.3,2.7-2.4,4-3.5l-.3-.3ZM306,132.1l-.2,1.1,3.9.5a50.13,50.13,0,0,1,6.6,1,57,57,0,0,1,8,3.5,4.14,4.14,0,0,0,3.9-.2,8.8,8.8,0,0,1,7.6-.6c2.7,1,5.3,2.7,8.7,1.9,2.9-.6,6.1-.2,9.2-.2l.2-.8c-1.8-.6-3.5-1.1-5.3-1.6a74.23,74.23,0,0,0-8.4-1c-3.2-.2-6.4-.2-9.5-.2s-6.3.6-8.8-.5c-3.1-1.3-6.4-1.6-9.5-2.6C310.1,132.3,308.1,132.1,306,132.1ZM154.9,134l.2.8,6.6-.5h.2c2.7-1,5.6-1.8,8.5-2.6a62.71,62.71,0,0,1,9.8-.8,19.7,19.7,0,0,1,6.4.3c6,1.8,10.3-1.1,14.3-5.3a10.89,10.89,0,0,0-3.1.8c-3.2,1.6-6.1,2.9-10,2.1a39,39,0,0,0-10.8-.2,77.77,77.77,0,0,0-10.9,2.1,7,7,0,0,1-1.8.5c-1.1.3-2.4.5-3.5.8-2,.7-3.9,1.4-5.9,2Zm116.7,7.1-1-.3c0-.6-.3-1.4,0-1.9.8-1.1,1.9-2.1,2.7-3.2.6-.8,1.3-1.8,1.9-2.7l-.6-.5a30.66,30.66,0,0,0-2.9,2.4c-1,1-1.4,1.3-2.7.5-2.4-1.1-4.8-2.3-7.2-3.2,2.4,3.9,2.9,4.3,6,5.1.8.2,1.9.3,1.4,1.4a3.63,3.63,0,0,1-1.9,1.3,21.81,21.81,0,0,1-4.5-1.6,12.81,12.81,0,0,1-2.4-1.1l-.3.5c.5.5,1,1.3,1.4,1.6,1.8.8,3.5,1.4,5.3,2.3a12.48,12.48,0,0,1,1.8,1.1l-2.6.6,2.1.6.2.6-4.5,1.6a10.81,10.81,0,0,0,2.3,1.8,4.08,4.08,0,0,0,2.9.3,15,15,0,0,0,3.4-2.7c.5-.5,1.3-1.3,1.3-1.6-1.3-2.4.8-3.5,1.8-5.1a1.64,1.64,0,0,0,.2-1c-.3,0-1-.2-1.1.2a14.21,14.21,0,0,0-3,3Zm15.6,100.4-.2-.6a24,24,0,0,1-14.8-3.5,45.66,45.66,0,0,0,2.9,4.2c.2.2.8,0,1.1.2a10.41,10.41,0,0,0,1.6.6c-3.5,1.9-5.6-1-8.7-1.4.2,1-.2,1.9.3,2.4,2.4,2.3,4.2,6.1,8.7,3.9l.6,1.8h1.9c-.8-1.4,0-2.1,1.3-2.3a21.7,21.7,0,0,0,4.2-1.1l-.2-.5-4.3-1.3-.2-.6ZM215.8,138.2c.2,0,.5.2.6.2,6.4.5,12.2-1.6,17.7-4.5a16.07,16.07,0,0,0,4.7-3.9,5.14,5.14,0,0,1,3.5-1.9c2.7-.5,5.6-1.1,7.7-3.1a2.33,2.33,0,0,0,.6-1.8c-.8-3.5-4.2-4.5-7.2-2.1l2.3-.5.6,1.6c-1.3.8-2.3,1.6-3.4,2.4-4.5,3.5-8.8,7.1-13.5,10.3a6.88,6.88,0,0,1-6.8.8C219.9,134.2,218,135,215.8,138.2Zm88-17.5.2.5c11.9,1.4,23.3-.3,33.9-7.6a53.31,53.31,0,0,0-9.7,2.9,13.47,13.47,0,0,1-11.1.5,12.21,12.21,0,0,0-2.6-.6,3,3,0,0,0-1.6.3c-1.9.8-4,1.8-6,2.7ZM275.1,102h.6a23.08,23.08,0,0,0,.3-3.7c-.3-3.4-1.3-6.8-1.3-10.1-.2-3.1-1.4-5.6-5.1-5.3a41.7,41.7,0,0,1-5,0l7.6,14.6c.5-5-1.9-8.8-3.1-13C273.5,89.6,272.7,96.4,275.1,102Zm41.1,40.1-9.2-5a17.1,17.1,0,0,0-10.6-2.3,14.72,14.72,0,0,1-4.7-.3,5.8,5.8,0,0,1-2.1-1l-.2.5c1.4.6,2.9,1.3,4.5,1.9s2.7,1.3,4,1.9c1.6.8,3.2,1.8,4.8,2.7.6.3,1.3,1,1.9,1.1a26.84,26.84,0,0,0,11.6.5ZM131.6,106.4c-1,.2-1.6.3-2.3.5a23.47,23.47,0,0,1-4.3,1.3c-3.4.2-6.8-.2-10.1-.2-1.1,0-2.3.2-3.4.3v1c3.2.3,6.6.6,9.8.6,3.9,0,7.6-.5,11.4-.5,2.6,0,5,.5,7.2-1.3a4.56,4.56,0,0,1,2.6-.6c4.2-.5,8.4-1.1,12.7-1.6a6.11,6.11,0,0,1,1.3-.3c-8.7-1.3-17.1.3-25.4,2.3Zm182.5-1.3c7.4.8,15.9-2.4,23.5-8.8a58.79,58.79,0,0,0-6-.3c-5,.3-8.7,3.1-11.9,6.6a9.55,9.55,0,0,1-3.1,1.9A12.88,12.88,0,0,1,314.1,105.1Zm-44.9,46.8,4.7-3.5-.3-.6c-.6.3-1.4.5-2.1.8a6.13,6.13,0,0,1-5.6.5,32.35,32.35,0,0,0-4.7-1.1c.3,3.9,1.9,6.3,6.3,6.6l-3.5,3.2c1.1,1.4,2.7,1.6,4.5,1.9,1.4.3,1.1-.8,1.4-1.6.2-.3.8-.5,1.3-.8l1.4-1-1.4-.3c.2-.5,0-1,.3-1.3.8-.8,1.6-1.4,2.4-2.1a8,8,0,0,0,1.3-1.3C270.6,153.5,270.3,153.5,269.2,151.9Zm-17.9-45.1a17.49,17.49,0,0,0-1.6-2.7c-2.3-2.4-4.8-4.8-7.1-7.2a21.24,21.24,0,0,0-8-5.5A29.2,29.2,0,0,1,224,85.8a7.5,7.5,0,0,0-1.8-.8l-.3.5a7.33,7.33,0,0,0,4.2,3.9,53,53,0,0,1,13.2,8.7c3.7,3.1,7.7,5.7,12,8.7Zm-1.3-4.1.3-.3a4.51,4.51,0,0,0-.3-1.1,33.51,33.51,0,0,0-3.9-4.7c-3.5-3.4-7.2-6.4-10.8-9.7-1-1-2.1-2.1-3.4-2.3a29.22,29.22,0,0,0-6.6.3,14.18,14.18,0,0,0,7.2,4.8,29.87,29.87,0,0,1,6.9,3.5c2.7,2.3,5.1,4.7,7.6,7.2A12.44,12.44,0,0,1,250,102.7Zm122.8,22.8v.6a43.28,43.28,0,0,0,7.2,0c7.1-.8,14-2.1,21.2-.6,2.9.5,5.8.6,8.7,1.1l.3-.5a10.7,10.7,0,0,0-1.6-1.4,16.87,16.87,0,0,0-10.1-1.9c-2.3.2-4.5.2-6.8.3-3.5.3-7.2,1-10.8.8a22.47,22.47,0,0,0-8.1,1.6Zm-41.3-12.7.2,1c4.8-1.3,9.7-2.6,14.3-4.2a28.13,28.13,0,0,0,7.1-3.7,34.12,34.12,0,0,0,3.9-3.7,1,1,0,0,0-.2-1.3,4.88,4.88,0,0,0-5.3.8c-1.8,1.6-3.4,3.4-5.3,4.8-.8.6-2.1.8-2.7,1.4a10.08,10.08,0,0,1-5,2.6C336,111.2,333.7,112,331.5,112.8Zm-23.1,22.7-.2.6c1.3.6,2.6,1.4,3.9,1.9,4.5,1.8,8.5,4.5,13.8,3.7,2.7-.5,5.6-.5,8.5-.8,1.1-.2,2.1-.3,3.2-.6v-.8q-3.15-.3-6.3-.3c-2.1,0-3.9,1.1-5.6.8a31.07,31.07,0,0,1-8.5-3.2c-3-1.6-5.7-1.5-8.8-1.3ZM270.3,280.8c-3.4-5.5-18.5-13.5-23.3-12.1,2.4,1.4,4.2,2.9,6.3,3.9,4.8,2.3,9.8,3.9,14,7.6.6.4,1.7.2,3,.6ZM340.6,44.4l.5-.5c-2.1-3.1-3.7-6.4-6.3-9a130.72,130.72,0,0,0-12.2-10.1,5.66,5.66,0,0,0-1.8-.3c.2.6,0,1.6.3,1.9a50.85,50.85,0,0,0,4.5,3.1,6.38,6.38,0,0,1,1.4.8c3.1,3.2,6,6.4,9,9.7C337.6,41.5,339.2,43,340.6,44.4Zm50.5,71.4c-1.6-.6-3.2-1.3-5-1.9a6.61,6.61,0,0,0-2.4-.3c-4.2,1-8.4,1.9-12.4,2.9a29.25,29.25,0,0,0-4.2,1.3C370.9,118.4,388.2,118.1,391.1,115.8Zm-27.3,3.6-.3-.6a40.24,40.24,0,0,0-6,1.4,31.14,31.14,0,0,1-8.5,2.1c-2.3.3-4.3.8-6.6,1.3s-4,1.1-6.1,1.6a42.61,42.61,0,0,1-5,.6v.8l7.4,1.3a7.14,7.14,0,0,1-.2-2.1c0-.2,1-.3,1.3-.3a16.3,16.3,0,0,0,10-.8c3.4-1.1,6.3-3.2,10.1-3.4,1.3-.1,2.6-1.3,3.9-1.9ZM259,84c1.4,2.4,2.9,4.8,4.2,7.2s2.3,5.1,3.4,7.7l.6-.2a3.64,3.64,0,0,0,.2-1.4c-.3-1.8-1.4-3.5.5-5.1.2-.2,0-.8-.2-1.1-1-1.9-1.9-4-3.2-6-1.8-2.2-2.9-2.4-5.5-1.1Zm65.2,21.9.2.8a40.74,40.74,0,0,0,6.8-1.3,28.2,28.2,0,0,0,5.1-1.9c2.1-1.3,4-3.1,6.1-4.3,1.4-.8,3.1-1.4,4.5-2.1-1.9-1-3.2-1.4-4.8,0a13.83,13.83,0,0,1-2.7,1.4c-1.9,1.1-4,2.1-6,3.2s-3.7,2.1-5.6,3.1A21.46,21.46,0,0,0,324.2,105.9ZM211.7,137.4a9.51,9.51,0,0,1,1.8-.6,30.12,30.12,0,0,1,4.2-2.7,6.67,6.67,0,0,1,4.2-.5,11,11,0,0,0,11.9-4,22.3,22.3,0,0,1-2.6.6,4.87,4.87,0,0,1-2.1.2,16.66,16.66,0,0,0-17.4,7ZM180,110.7c3.5.5,6.8,1.8,10.5,1.1s7.2-1,10.9-1.3A25.78,25.78,0,0,0,180,110.7Zm94,174.6-.5.5a2.93,2.93,0,0,1,.3,1c2.7,3.5,6.1,6.6,7.9,10.9.5,1.3,2.1,2.1,2.6,3.4.8,2.7,3.9,3.1,5.1,5.8.8-2.3.5-3.7-1.1-4.7a2.13,2.13,0,0,1-1.1-1c-2.9-4-5.6-8.2-8.7-12.2a40.24,40.24,0,0,0-4.5-3.7ZM233.8,116.5c-5.6.5-11.4.8-17.1,1.6s-10.9,2.6-16.3,3.9v.6a9,9,0,0,0,3.7.6c4-1,7.9-2.3,11.6-3.5a16.77,16.77,0,0,1,7.4-.8,17.69,17.69,0,0,0,10.7-2.4ZM302,86.1c-1.4,2.7-2.7,5-3.9,7.2-1.4,2.7-5,1.6-7.1,3.7,2.6-.3,1,1.4,1.6,2.4,6-1.3,8.8-6,11.7-10.5ZM271.4,375.7c-3.2.5-4,2.9-5,5a1.15,1.15,0,0,0,.5,1.4,3,3,0,0,0,4.2-.8h0a10.66,10.66,0,0,0,1.6-9.8,7.54,7.54,0,0,0-.6-1.3,4,4,0,0,0-1.3,1.3c-.3.5,0,1.1,0,1.6l-1.6,1Zm-50-274.5-.2.5c2.3,2.1,4.5,4.2,6.9,6.1a20.11,20.11,0,0,0,6.3,2.9c.5.2,1.3-.3,1.9-.5-.3-.6-.5-1.6-1-1.9a64,64,0,0,0-7.9-4.8A46.82,46.82,0,0,0,221.4,101.2Zm-38.5,4.3.2.8c.3,0,.6.2.8.2a45,45,0,0,1,8.2-.3c4,.6,8,2.3,12.1,3.2a39.54,39.54,0,0,0,8.5,1,14.29,14.29,0,0,0,3.7-.8,7.84,7.84,0,0,0-4-.6c-4.5.5-8.7-1-12.9-1.9-3.2-1-6.4-1.6-9.7-2.3A20.54,20.54,0,0,0,182.9,105.5Zm23.4,13.2.2.8c7.6-4.7,16.4-2.3,24.5-4.8a8.74,8.74,0,0,0-7.4-2.1c-5.1,1.8-10.3,3.4-15.4,5.1C207.4,118.1,206.8,118.4,206.3,118.7Zm43.4-20.2L248.3,94c-.3-1-.3-2.1-.8-2.7-2.1-1.8-4.5-3.4-6.8-5.1a2.66,2.66,0,0,1-1.1-1c-1.1-1.4-1.9-.8-2.7.2Zm-39.4,25.4c4,2.3,12.7.5,17.1-3.1C221.2,119.5,215.8,121.3,210.3,123.9Zm67.4,31.7c-.2,0-.5.2-.6.2-2.3,1.9-4.5,3.7-6.9,5.6a1.69,1.69,0,0,1-1,.3c-1.8-.3-3.4-.8-5.1-1.1a6.42,6.42,0,0,0-1.6.5c1.9,1.3,3.4,2.4,5,3.4a5.75,5.75,0,0,0,7.7-1.4,8,8,0,0,0,.8-1.6,15,15,0,0,0-3.4,1.1c-.5.2-1-.2-1.4-.3.3-.3.5-1,.8-1.1a10.11,10.11,0,0,0,5.7-5.6Zm-.2-59.2c3.5-3.2,5.5-9.5,3.7-12.4l-2.4,9h-.5l1.4-8c-1.1,0-2.4-.3-3.1.2s-.3,1.8-.3,2.7a42.33,42.33,0,0,0,.5,5c.1,1.1.4,2,.7,3.5Zm-98.7-2.6c6.1,4.7,12.7,2.9,19.1,2.9a2.59,2.59,0,0,0-1.4-.6,78.9,78.9,0,0,1-10.9-2.7,8,8,0,0,0-6.8.4ZM215.6,131l-.3-.5-17.7,8.2a11.22,11.22,0,0,0,8.8-.6,71.56,71.56,0,0,0,6.1-4.8Zm140.3-.5a28.55,28.55,0,0,0,14.8,4.2,5.77,5.77,0,0,1,1.4.3c2.4,1.3,4.5.2,6.6-.8-7.7-.2-14.6-4.2-22.8-3.7ZM317.3,22.7c-1-4.3-13.5-13.5-18.8-13.5Zm-120,110a57.15,57.15,0,0,0,5.8-2.1,26,26,0,0,1,11.1-2.3c1.4-.2,2.9-.5,4.3-.8l-.2-.5C209.7,125.2,200.3,127.4,197.3,132.7Zm-35,3.6v.5c1.4.2,2.7.3,4.2.5,2.4.6,5,.8,7.4,1.4,3.9,1,8-.5,11.7-1.9a5.49,5.49,0,0,0,1.1-1.1h-2.6c-3.2.3-6.4,1-9.7,1a17.09,17.09,0,0,1-7.4-.8c-1.8-1.1-3-.1-4.7.4Zm48.6-36.9c5,5,11.3,7.7,17.4,10.8C223.3,105.4,218.2,100.7,210.9,99.4Zm153.5,3.7a8.61,8.61,0,0,0-8.7,2.7c-1.8,1.9-4.7,3.1-6.9,4.5-1,.5-1.9,1-2.9,1.4l.3.6c7.1-.5,12.3-5.3,18.2-9.2ZM185.8,339.3c-3.7.2-16.3,6.4-17.4,8.8,7.2-3.9,15.1-5,21.9-8.8l-.3-.8-6.1,2.9-.2-.5ZM167.3,134.4l.2.6c6.8,1.1,13.5-.2,20.3-1.3a9.57,9.57,0,0,0-4.7-1.1c-3.7.2-7.6.3-11.3.6A23,23,0,0,0,167.3,134.4Zm-11.1-31.1c3.5,1.8,6.9-2.3,10.6-.2l-4.8,1.6.2.5h10.9l.2-.6c-.6-.3-1.3-.5-1.8-.8a21.52,21.52,0,0,1-5-1.9c-3.8-2.6-6.9.1-10.3,1.4ZM332.4,49.9c1.8-.2,3.1-.3,4.2-.5.3,0,.8-.3.8-.5s-.2-1-.5-1.1c-2.7-1-5.5-1.9-8.2-2.6-.6-.2-1.6.6-2.4,1,.6.8,1,2.1,1.8,2.4A17.63,17.63,0,0,0,332.4,49.9Zm-204,71.7c2.4,3.1,14.2,1,18.3-2.9ZM272.6,406.1c0-4,0-4-3.7-5a7.58,7.58,0,0,0-1.6-.6c-1.4-.5-3.1-1.1-4.7-1.6l-.3.6c.6.6,1.8,1.3,1.8,1.6-.3,1.8,1.1,1.8,1.9,2.3s2.4.8,3.1,1.6A3.08,3.08,0,0,0,272.6,406.1ZM373.8,139c1.9,1.8,8,2.6,10,1.4a2.09,2.09,0,0,0,.8-1c.3-1.1.5-2.3.8-3.7ZM231,137.2l.2.5a4.78,4.78,0,0,0,4.7-1,16.22,16.22,0,0,1,7.4-4.2,7.39,7.39,0,0,0,4.7-3.4h-2.3a8,8,0,0,0-6.4,3.1,15.25,15.25,0,0,1-4,2.9c-1.5.9-3,1.3-4.3,2.1ZM199.7,289.5l.5.5a32.89,32.89,0,0,0,12.9-12.2c-2.9.2-8.5,4.5-8.8,6.9l2.6-1.1ZM153.5,132.4l17.4-4.5v-.5c-3.1.2-6.1.5-9.3.5C158,127.9,155.6,129.8,153.5,132.4ZM262.1,366.5l-.3.6a4.6,4.6,0,0,0,1,1.8A35.3,35.3,0,0,0,266,371c2.6,1.6,3.9,1.1,4.8-1.8a2.87,2.87,0,0,1,.6-1.1ZM146.9,356.1c1.1,1.9,2.7,1.4,4,1.4a10.67,10.67,0,0,0,9-4.2c-4.2-1.3-6.1-.6-7.6,2.4Zm-1,43.7c.8-1.6,1.4-2.7,1.9-3.9s.3-1.8-.8-2.1c-.8-.3-1.6-1.1-2.4-1.3a3.52,3.52,0,0,0-2.6.5,2.12,2.12,0,0,0-.2,1.9c1.4,1.9,2.7,3.3,4.1,4.9ZM254.4,78.4l-5-10.8C246.3,70.6,248.7,76.1,254.4,78.4ZM194,47.6l-.5-.5C189.8,48.4,179,58.2,179,60.8Zm91.3,62.6.8.5,11.3-10.9c-3.1.8-6,1.6-7.7,4.5a24.51,24.51,0,0,1-2.9,3.5C286.2,108.6,285.8,109.4,285.3,110.2Zm-23.7,54.9c2.6,1.8,4.7,3.5,7.1,5s4.2,0,4.7-3.1a17.38,17.38,0,0,0-1.9,1c-1.1.8-1.8.6-2.6-.5A6.09,6.09,0,0,0,261.6,165.1ZM241.8,85.4c2.6,2.6,5.5,5.1,8.2,8,1.4,1.8,2.7,3.7,3.9,5.6a19.15,19.15,0,0,1,1.6,2.1C254.2,95.4,246.5,85.1,241.8,85.4Zm8.1,45.7-9.3,7.2.2.6a6.87,6.87,0,0,0,2.4-.5c1.6-.8,3.2-1.9,4.8-2.6,1.6-.5,2.7-1.9,1.9-4.7Zm25.4,41.1c-.2.2-.5.2-.5.3a3.87,3.87,0,0,1-4.7,2.7,2,2,0,0,0-1,.2c-.5.5-1.4.6-.8,1.8.2.3,0,1,.2,1.3.3.8.6,1.9,1.3,2.3s1.6-.3,2.4-.6c.2,0,.2-.3.2-.5l-1.4-1c4.5-4.9,4.5-4.9,4.3-6.5ZM230.9,15.1l.3.6,10.9-6.6C238.6,7.9,233.3,10.9,230.9,15.1ZM213.2,141.8v.8a15.33,15.33,0,0,0,3.7.2c1.3-.2,2.6-.6,3.9-.8,2.1-.3,4.3-.6,6.4-1.1v-.8c0-.2-.2-.5-.2-.6-4.6.5-9.5.6-13.8,2.3Zm116.3-28.4c-4,0-8-.5-11.7,1.6,4.5,3.3,8,0,11.7-1.6Zm-17-23.5c-4.8-1.9-9.5,1.9-10.5,6ZM281.6,288.2l.5-.3c-.2-1.4.2-2.4,1.8-2.6.6,0,1.1-.8,1.9-1.4l-9.3-1.3-.3.5Zm20.6-145.6c-2.9-3.4-7.1-3.9-10.6-5.8a9.75,9.75,0,0,0,10.6,5.8ZM271.6,400c.8-2.9.8-2.9-1.6-3.5-1.4-.5-2.9-1-4.3-1.4a3.61,3.61,0,0,0-1.8.3c.2.6.3,1.6.6,1.8,2.4,1,4.7,1.8,7.1,2.8ZM186.3,138.4l.2.6c5.8,1.1,10-2.6,14.6-4.7l-.2-.5Zm62,1.3a9.28,9.28,0,0,1,2.6,1c.3.3.3,1,.6,1.4h-1.1c-1.6-.3-3.2-.6-4.8-1-.3,0-.8.5-1.3.6l.2.5a17.67,17.67,0,0,0,7.9,1.1v-7.1ZM282.9,92l5.6-6.1a3.09,3.09,0,0,0-3.9-1.9.37.37,0,0,0-.3.2Zm-11.1,79.7v.8l-7.6-2.3c1.4,2.4,5.8,4.5,7.7,3.9a9.51,9.51,0,0,0,4.2-5.6Zm-35.9-49.9a19.1,19.1,0,0,0-13.5,4.7,38.12,38.12,0,0,0,13.5-4.7ZM300.2,111l1.9,3.1,7.1-4.2a11,11,0,0,0-9,1.1ZM237.6,344.5l3.7,3.1c0-6-1.3-9-5.3-8.5.6.8,1.3,1.6,1.9,2.4C239.7,342.7,239.7,343,237.6,344.5Zm52.5-202.6.3-.5c-3.7-1.4-5.1-4.7-6.3-8a39.06,39.06,0,0,0,.6,6.8c.2.8.8,2.1,1.4,2.3A25.68,25.68,0,0,0,290.1,141.9ZM184.4,392.6a27.91,27.91,0,0,0,1.4-10.3C182.8,386,181.5,390.5,184.4,392.6ZM198.5,95.3c-6-3.9-7.9-5.5-11.9-2.7Zm92.7-5.7a10.67,10.67,0,0,0-6,5.8,1.48,1.48,0,0,0,.2,1.3,1.7,1.7,0,0,0,1.4,0C289.6,95.1,290.3,92.4,291.2,89.6Zm-12.5,15.8.5.2a10.42,10.42,0,0,1,1-1.8,14.38,14.38,0,0,1,2.7-3.9c1.9-1.6,1.9-3.2.8-5.3-2.1,3.7-4.5,6.8-5,10.8Zm-146,285.9c-.6,3.7,1.1,6,2.9,8.2a1.16,1.16,0,0,0,1,.2c.3-.3.8-1,.6-1.3A17,17,0,0,0,132.7,391.3ZM176.5,116v-.6l-19.3,2.9.2.5C164,119.2,170.1,116.7,176.5,116Zm121.2,16.3-6-2.7.2-.3-2.9.7C290.1,132.7,293.5,133.5,297.7,132.3ZM261.3,376.2l-.6.5,4.3,5,2.3-5.1-3.1-.6.6,1.6-.3.5Zm-24.1-252-10.8,3.7c3,1.6,8.5-.1,10.8-3.7Zm121-14.3.3.5,9-2.9c-1.3-1.1-2.4-2.1-3.9-1.3a39.68,39.68,0,0,0-5.4,3.7ZM104.7,91.7c.2,0,.5,0,.5-.2,1-1.9,1.9-3.9,2.9-5.8,0,0-1-.8-1.4-.6C104.4,85.8,103.3,89.6,104.7,91.7Zm325.7,20.6c-4.7,2.9-5.6,4.2-4.8,7.2l1.6-2.4a9.5,9.5,0,0,0,1.8-.6A5,5,0,0,0,430.4,112.3ZM257.8,367.8c.2,1,.2,1.6.3,2.1a12.57,12.57,0,0,0,8.8,5.1c.5,0,1-.5,1.4-.8.2-.2,0-.8,0-.8a4.4,4.4,0,0,0-1.6-.2,10.73,10.73,0,0,1-3.5-.6A58.22,58.22,0,0,1,257.8,367.8Zm23-298-.6-.3c-1,2.3-2.1,4.3-3.1,6.6,0,.5.2,1,.5,1.1a1.44,1.44,0,0,0,1.4-.3C280.6,74.8,280.4,72.2,280.8,69.8ZM181.5,386.5a13.63,13.63,0,0,0,2.9-7.1,4.53,4.53,0,0,0-3.5,5.3A2.79,2.79,0,0,0,181.5,386.5ZM151.6,72.9c2.9.5,12.1-2.9,13.2-4.8Zm261.7,30.6c-1.8-.5-3.4-1.1-5.1-1.4a1,1,0,0,0-1.3.5.81.81,0,0,0,.2,1.1C408,105.7,411.6,105.7,413.3,103.5ZM266.6,132.6c1,.5,2.4,1.8,3.5-.5a5.48,5.48,0,0,1,1.8-1.6c1.4-.6,1.4-1.8,1-3.5-1.4,1.3-2.7,2.6-4,3.7-.7.6-1.5,1.2-2.3,1.9ZM140.5,398.4a2.39,2.39,0,0,0,1.3,3.2c.2,0,.2.2.3.2,1.1.5,2.1,1,1.3,2.6-.2.5.2,1.1.2,2.1C146.7,402.9,143.8,399.8,140.5,398.4ZM206.6,95.1c-2.3-1.4-4.3-3.1-6.8-4.3-.8-.5-1.9-.2-2.9-.2C199.5,94,203.4,94.1,206.6,95.1ZM167.8,350c2.4.3,11.6-3.5,12.1-5.3Zm75.3-231.1v-.6l-6.1-1.8-1.4,2.9ZM177.3,85l.3-.6L173.7,77c-1.1,2.9.6,5,1.9,7.2C176,84.6,176.7,84.6,177.3,85Zm90.8,238.1c-2.6,2.4-3.7,4.5-3.2,6.3,2.5-.7,4.3-4.2,3.2-6.3ZM147.7,403l1.1.2,1.3-10.3-.6-.2C149.3,396.3,147.1,399.5,147.7,403ZM266.1,122.3l-.6.3a4.67,4.67,0,0,0,1.4,4.2,2.33,2.33,0,0,0,3.2-.3ZM290.7,399c2.7-1.6,3.4-3.4,2.4-5.8a4.59,4.59,0,0,0-2.4,5.8Zm5.7-320.2c3.5-.8,5.3-3.4,6.4-6.4l-.5-.3ZM170.2,391.5a14.79,14.79,0,0,1-1.9,3.5c-1.4,1.4-1,3.1-1.1,4.8,1.9-1.4,3.5-6.7,3-8.3ZM270,97l-.5.2,3.7,11.7a1.52,1.52,0,0,0,.6-1c-.2-1-.5-1.9-.8-2.9-.8-2.5-1.9-5.2-3-8ZM258.2,70.5c-.8,2.9,2.4,8.4,4.5,7.9Zm-51-36.2-.5-.6-8.2,7.6C202.4,40.2,204.3,36.5,207.2,34.3Zm-84.1,347a33.6,33.6,0,0,0,3.1,4.3,3.79,3.79,0,0,0,1.3.6c.2-.6.5-1.4.3-1.8C126.6,383.1,125.5,381.5,123.1,381.3Zm13-38.1c1.3,1.4,2.1,2.4,3.1,3.4a1,1,0,0,0,1.1-.3,4.15,4.15,0,0,0,.3-1.3l1.8-.3V344ZM293.6,91.7l5.1-5.8C295.9,85.8,293.8,88.2,293.6,91.7Zm0,170.2c-1.6-1.1-5.5.6-7.6,3.1,3.1.3,4.7-2.4,7.6-3.1ZM195.2,125.2l-7.6,1.4c2.9,1.6,6.4,1,7.6-1.4Zm-77.6,214-.5.5c1.3,3.2,5,3.4,7.2,5.6l.3-.3Zm17.1,50.3-.5.5c1.1,1.8,2.1,3.4,3.2,5.1.2.3.6.3,1.1.5,0-.5.3-1.1.2-1.3-1.3-1.7-2.6-3.2-4-4.8ZM390.2,135c-1.3,1.3-3.5,1.4-3.5,4.3l4.2-1.6ZM275.1,377.3c3.2.6,6.6-.5,6.6-2.3C279.6,376.7,276.9,375.2,275.1,377.3Zm-58.7-50.4L215,324a23.26,23.26,0,0,0-.8,3.1c0,.6.8,1.3,1.1,1.8Zm51,59.7c-1.4.2-2.4-1.8-3.2,0-.3.8-.8,2.1.6,2.6,2,.7,1.5-1.3,2.6-2.6Zm-27-33.4c.6-.8,1.3-1.1,1.4-1.6.2-1.1-.3-1.9-1.4-1.9a2.17,2.17,0,0,0-1.4,1.4c-.2.5.7,1.1,1.4,2.1Zm-70-277.3a13.85,13.85,0,0,0-2.4-1.4c-.6-.2-1.3.6-1.9,1.1.6.6,1.1,1.4,1.8,1.6S169.1,76.6,170.4,75.9Zm99.4-.3a4.77,4.77,0,0,0-1.3-5.5,5.5,5.5,0,0,0,1.3,5.5Zm-71.7,5.5L193.3,78c.6,3.4,1.9,4.2,4.8,3.1Zm86,46.7-.6.2c.2.6.3,1.1.5,1.8,1.8-.3,1.6,1.3,2.3,2.1a23.07,23.07,0,0,0,1.9,1.4l.5-.5ZM130,349l.3-.5c-2.3-3.5-2.9-3.9-4.2-1.9Zm-.5,3,.3-.8-6.8-3.9-.5.8Zm126.6,40.1-.8.5c.8,1.4,1.4,2.7,2.3,4.2a1.2,1.2,0,0,0,.8.2c.2-.3.5-1,.3-1.1A22.92,22.92,0,0,0,256.1,392.1Zm-7.2-4c-2.7.5-3.1,1.1-2.3,3.4C248.7,391.5,248.7,389.9,248.9,388.1Zm-97-39.1-.2.6a4.23,4.23,0,0,0,3.9,1c.2,0,.5-.5.5-.6s-.3-.8-.6-.8A10.77,10.77,0,0,0,151.9,349ZM331.6,82.9a3.75,3.75,0,0,0,4.3-3.2v-1ZM217.7,77.6c1.1,2.3,2.6,2.9,4.3,1.9-.8-1.9-2.4-1.6-4.3-1.9Zm97.8,2.2.8.5,4.5-6.4-.5-.3ZM265,338.5l.2-.6a13.9,13.9,0,0,0-2.7-.3,1.65,1.65,0,0,0-1,1,2,2,0,0,0,.6,1.3l2.1-1.1-.2-.5Zm15,31.7c1.9.2,6-2.6,6.1-4.3Zm4.8-302.1-.5-.2c-1.4,1.9-2.6,5.3-1.8,6.6ZM227.7,325.5h1l.2-4.7h-1Zm-9.4-6a3.63,3.63,0,0,0,2.3-4.5c0-.2-.2-.2-.2-.3Zm.8,7.3h-1a16.15,16.15,0,0,0,.2,3.1c0,.2.6.3,1.1.5.2-.3.5-.8.3-1.1a9,9,0,0,0-.6-2.5Zm32.1,46.5-.3-.3a10.54,10.54,0,0,0-2.6,1.3,3.82,3.82,0,0,0-.6,1.6c.5-.2,1.3,0,1.6-.3.6-.7,1.2-1.5,1.9-2.3ZM204.7,81.7l-3.2-1.8c0,.5-.2,1,0,1.3C202.1,82.4,202.9,83,204.7,81.7Zm82.5,191.2-.3-.5-4.5,2.3.3.5a4.79,4.79,0,0,0,4.5-2.3ZM129.4,390.7c1.6-1.8,1.3-2.6-1.1-4Zm8.7-259.9.5-1-4.8-2.4-.5.8Zm108.4,251a23.48,23.48,0,0,1,2.1-3.1,2.1,2.1,0,0,0-.8-.6c-.5.8-1.1,1.8-1.6,2.6-.2,0,0,.1.3,1.1Zm13.2,1.6-.5.8c1.1.8,2.1,1.4,3.2,2.3.2,0,.6-.5,1.1-1ZM279,281.1l.2.8,6.1-1.9-.2-.6Zm-77.9,4.8-.5-.5-4,3.2.5.5C198.9,288.8,199.7,287,201.1,285.9ZM144.3,98.8l.2-.8c-.8-.8-1.6-1.8-2.9-.8-.2.2-.2,1.3,0,1.3A22.28,22.28,0,0,0,144.3,98.8ZM270.1,335.2l-3.2,1.4a7.36,7.36,0,0,1,.5.6,18.47,18.47,0,0,0,2.9-1.3A1,1,0,0,1,270.1,335.2ZM131.6,90.1l-.8-3.2-2.1,2.7Zm81.1-64.4.6,1,4-2.7-.5-.6Zm14.2,363.4.6-3.1c-.5,0-1.1-.3-1.3,0C225.3,387,225.3,387.9,226.9,389.1Zm136.9-293-4.3,1C361.4,98.5,362.3,98.3,363.8,96.1ZM428,121.8l-4.5,2.7c2.6.2,3.5-.4,4.5-2.7Zm-17.4-8.4-.5-.8-4.2,2.3.5,1ZM291.2,123.9l-.2-.5-5.3,1.8.3,1Zm22.6,21.6-.2-.6-6.3.8.2.8ZM125.2,95.6l-.8.2.6,4.3.8-.2Zm164.7,42.9-2.6-4.2c-.4,2.3.1,3.3,2.6,4.2ZM258.4,386.8l-.3.3c.6.8,1.4,1.6,2.1,2.4a2.55,2.55,0,0,0,1.3.2c-.2-.3-.2-.8-.5-1.1C260.2,387.9,259.2,387.4,258.4,386.8ZM405.9,111.2l-.5-.8-4.5,2.3.3.6Zm-281.2,8.7a4.37,4.37,0,0,0,5.3-.8Zm84,207.5,1-.2-.6-3.9-1,.2ZM126,340.9l.3-.8-4.5-1.8-.3.8Zm2.7-240.8.6-.3-1.1-3.1-.5.2A2.45,2.45,0,0,0,128.7,100.1Zm23.5-7.7.3-.6L149,89.7a2.83,2.83,0,0,0,3.1,2.6c-.1.1.1.1.1.1ZM293,145.1c-2.1-1.3-4-1-5,.3ZM255.7,344.3h-.5v3.5h.5Zm-10.8,39.6.8.8,1.6-1.6-.8-.8C245.9,382.8,245.4,383.4,244.9,383.9Zm-14.3-6.1a7,7,0,0,0,.6-1.9,2.92,2.92,0,0,0-.5-1.4c0-.2-.6,0-.6,0a3,3,0,0,0-.2,1.6A4.32,4.32,0,0,0,230.6,377.8Zm-44.3,17h.6l-.3-3.7c-.9,1.5-1.4,2.8-.3,3.7Zm45.4-1.6.6-.6-3.4-2.7-.5.6Zm60.2-153.3.8.6a15.34,15.34,0,0,0,1.4-2.1l-.6-.6ZM236.5,378.4l-1.4-1.3c-.2.3-.6.8-.6,1.1s.5.8.8,1.1Zm-86.4,11.1-.6-.3-1.9,1.4.2.6c.5,0,1.1.2,1.4-.2a2.9,2.9,0,0,0,.9-1.5Zm107.5-49.2-.2-1-2.3.3.2,1.1ZM370.1,97l-.2-.5a12.5,12.5,0,0,0-1.9.3,1.68,1.68,0,0,0-.6,1.1,1.47,1.47,0,0,0,1.1.2C368.9,97.8,369.4,97.5,370.1,97ZM138.5,351.6l.2-.6-4.2-1-.2.6Zm6.3-275-.2-.8-3.5.8.2.6ZM288.7,389.7l-.5-.5-3.7,3.1.3.3Zm-56.2-35.1-.5.8,2.7,1.4.3-.8Zm13.4,32-.3-.6a4.11,4.11,0,0,0-1.3.8,8,8,0,0,0-.8,1.6l.6.3Zm44.2-79.1c-.3,2.4-.2,2.9,1.6,2.6Zm-1.9-48.1-.2-1-3.2.6.2.8Z"/><path d="M93.2,349.1l.3-2.4,1.4-1.1-.2-.5-1.3-.2a6.94,6.94,0,0,1,.5-1.3c2.1-3.5,4-6.9,6.3-10.3a6.54,6.54,0,0,1,2.4-1.9c.6,1.3,1.8,2.4,1.8,3.7a47.43,47.43,0,0,1-1.4,9.3,95.7,95.7,0,0,1-3.1,10c-1.3,3.9-2.9,7.7-4.3,11.7-.5,1.4-.3,3.1-.8,4.5-1.3,4-2.6,7.9-3.9,11.9a18.94,18.94,0,0,1-.6,1.8l.6.3,13.8-20.1.3.3c-.8,1.8-1.8,3.4-2.6,5a12.81,12.81,0,0,1-1.1,2.4c-.5.8-.5,2.1-2.1,1.8a1.78,1.78,0,0,0-1.1.8c-2.1,3.4-4.2,6.8-6.3,10.1-.6,1.1-1.3,2.3-1.9,3.2a5.55,5.55,0,0,0-.2,5.3c.2.5.8.6,1.3,1.1-1.1,3.9,1.4,9.7,5.5,11.6l5.5-11.6.3.2c-.5,1.4-1,2.9-1.4,4.3-1,2.6-1.9,5-2.9,7.6-.5,1.3-.6,2.4,1.1,2.9s1.9-.8,2.3-1.8a18.47,18.47,0,0,1,1.3-2.9l.5.2-1.9,6c-.5.8-1.4,2.3-2.3,3.7-1.6,3.1-3.2,6.3-4.8,9.5a7.47,7.47,0,0,1-1.1,1.3l-.5-.3c.5-1.1,1-2.4,1.4-3.4,1.3-2.4,2.7-4.8,4-7.2.8-1.4,0-2.1-1.4-2.6l-1.3,4.5-.6-.2.5-5.8c-.8-.8-1.6-1.6-2.4-2.3a4.42,4.42,0,0,0-1.6-.6,2.75,2.75,0,0,1-2.7-1.1c-1-1.3-1.8,0-1.9.8-1.1,3.5-2.1,7.1-3.1,10.5a29.72,29.72,0,0,1-1.3,3.9l-1-.2a35.32,35.32,0,0,1,.5-5.6c.6-3.2,1.6-6.3,2.4-9.5a1.3,1.3,0,0,0,.2-1c-1.4-1.3.3-3.1-.6-4.3-.2-.2.3-.8.5-1.3a11.32,11.32,0,0,1,1-1.3l-.3-.3c-.3.2-.6.5-1,.8A46,46,0,0,0,77,411.7c-.6,1.8-1.9,3.4-2.6,5.1-1,2.3-1.8,4.5-2.7,6.8a15.33,15.33,0,0,1,1.3-9c1.9-3.5,3.7-7.4,5.3-11.1,1-2.3,1.3-4.8,3.5-6.3.3-.2.3-.8.6-1.3l-1.8-.6v-.5a10.72,10.72,0,0,0,1.3-1.9,14.6,14.6,0,0,0-3.4-2.6,47.41,47.41,0,0,0-5.1-2.4c-1-.5-1.9-1.1-3.1-1.8-.3,3.1,2.6,5.6,7.9,7.4-.6.5-.6.6-3.1.2a24.81,24.81,0,0,1-3.5-1.3c-.2,3.9,2.9,4.8,5.3,6.4l-.3.5a28.11,28.11,0,0,1-3.1-1H71.7c.3.6.3,1.6.8,2.1a16.16,16.16,0,0,0,3.7,1.9l-3.2.8,1.3,1.6-.2.5a4.49,4.49,0,0,1-1.9-.5c-1-.6-1.8-1.1-2.9-.3-.6.3-1.6-.2-2.6-.2-.3,1.4-.3,1.4,3.9,5.6-2.4,1.1-4.3-2.4-7.1-.6.5.5,1.1,1.3,1.4,1.1,1.6-.3,2.1,1,3.1,1.8a16.29,16.29,0,0,0,3.4,1.4l-1.1,1.8-6.9-4-.6.8c.3.5.8,1,1.1,1.6s.6,1.1,1,1.8a7.59,7.59,0,0,1-1.8.6c-2.1-.2-1.9,1.1-1.8,2.4a13.06,13.06,0,0,0,.8,2.1,2.55,2.55,0,0,1-.2,1.3c-.5-.2-1.1-.3-1.3-.8a10.41,10.41,0,0,0-.6-1.6c-.3-.5-.6-1.3-1.1-1.4s-1,.5-1.6.8c1.4,2.9,4.5,4.7,4.5,8.5-6-3.2-11.9-6.4-16.6-11.3,2.1,1.4,4.2,2.9,6.3,4.2s4.3,2.6,6.4,3.9l.5-.6L47.5,411.2l.3-.3,1.8,1.8c1,1,1.6,2.3,3.5,1.8.5-.2,1.3,1.1,2.1,1.8l1.4,1.4a9.17,9.17,0,0,0,1.3-2.1c.8-5.3-.6-10.5-1.6-15.8-.6-3.4-1.3-6.9-1.9-10.5,0-.5-.2-1.1,0-1.3,2.7-2.4,1.9-5.6,2.1-8.5a2.15,2.15,0,0,1,.2-1.1c0-.2.2-.3.3-.5a31.08,31.08,0,0,0,0,6.1c.8,6.4,1.6,12.9,2.6,19.3a9.55,9.55,0,0,1,0,5.3,25.33,25.33,0,0,0-.2,5.5c.6-.8,1-1,1.1-1.3,1.6-6.4,3.7-12.9,4.8-19.5,1-6,1-11.9,1.3-17.9,0-1,.6-2.1-.8-2.6-.2,0-.2-.8,0-1.3.5-5,.8-9.8,1.4-14.8a120,120,0,0,1,4.5-21.9c2.3-6.9,4-14,6-20.9a.85.85,0,0,1,.2-.6c.5-3.7.5-3.7-3.1-2.7-5,1.3-9.8,2.9-14.8,3.9a74.34,74.34,0,0,1-24.9,0c-2.9-.5-5.6-1.3-8.4-1.9a9.74,9.74,0,0,0-2.4.2c-3.1,0-5.5-1.8-7.9-3.4A39,39,0,0,1,5.8,298.6a25.64,25.64,0,0,1-3.7-12.4c-.2-1.9,0-3.9-.2-5.8,0-.5-1-1-1.8-1.8,0-2.6,1.4-5,2.7-7.4,1-2.1,1.8-4.2,2.7-6.3,2.4-5.3,4.3-10.8,8.4-15.3,2.1-2.4,3.9-5.1,5.8-7.7,3.2-4.2,6.6-8.4,9.8-12.6.8-1,1.4-2.1,2.3-3.1,2.9-3.5,5.6-7.2,8.5-10.8,1.1-1.4,2.4-2.9,3.5-4.3,5.5-6.9,10.6-14,16.4-20.8a62,62,0,0,1,8.4-7.1c2.9-2.3,5.8-4.5,8.7-6.4,1.4-1,3.4-1.6,5-2.6,4-2.3,7.9-4.5,11.9-6.6,2.9-1.4,5.8-2.6,8.7-3.9,2.6-1.1,5.3-1.9,7.9-3.1a23.52,23.52,0,0,1,11.4-1.4,34.74,34.74,0,0,0,7.2-.3,54.82,54.82,0,0,0,5.6-1,2.21,2.21,0,0,1,1.6,0c6.3,1.8,12.6,3.2,18.7,5.3a40.58,40.58,0,0,1,8.8,4.5c4.3,2.6,7.7,6.4,11.1,10.1,6.9,7.4,10.6,16.4,12.7,26.2,1.9,8.8,2.4,17.7-.3,26.4a42.81,42.81,0,0,1-3.9,7.7c-.6,1.1-1.3,2.3-1.8,3.4a1.08,1.08,0,0,0,.2.8,52.81,52.81,0,0,0-3.7,5.5c-2.9,5.8-5.6,11.7-8.5,17.5-.3.5-.6.8-1.1.8l.3-2.1-.3-.3c-.6.8-1.1,1.6-1.6,2.4-2.3,3.4-4,7.2-6.8,10.1A103.67,103.67,0,0,1,148,286.8a32,32,0,0,1-6,2.6c-3.5,1.3-7.1,2.6-10.6,3.9-3.2,1.1-6.4,2.1-9.7,3.1-4.2,1.4-8.4,2.7-12.6,4.2-3.2,1.1-6.4,2.4-9.7,3.9a4.39,4.39,0,0,0-1.9,2.7c-1.3,4.8-2.6,9.7-3.4,14.5-1.3,8-2.3,16.3-3.2,24.5a6.81,6.81,0,0,0,.8,3.1Zm18.6-57.7a9.66,9.66,0,0,1-1.9-2.6c-1.1-3.5-4-6.1-4.2-10,0-.2-.2-.3-.3-.5-.8-.5-1.6-1-2.4-1.4a7,7,0,0,0-.6,2.3,25.83,25.83,0,0,0,.8,2.6,36.46,36.46,0,0,1,1.4,3.5c.8,2.1,1.3,4.2,2.1,6.1.3.8,1.4,2.1,1.9,1.9a7.56,7.56,0,0,0,3.2-1.9,3.92,3.92,0,0,0,1,.8.6.6,0,0,0,.8,0c.2-.2.3-.5.2-.6-1-1.6-1.9-3.2-2.9-4.8l-.8.3c.3.6.5,1.4.8,2.1C111.2,290.1,111.5,290.7,111.8,291.4Zm21.4-6c2.1-.8,4.3-1.6,6.4-2.6a1.8,1.8,0,0,0,.6-1.6c-.6-2.4-4.3-4.2-6.9-3.7a7.88,7.88,0,0,1-4.3-.2,55.18,55.18,0,0,1-6.6-4,17.61,17.61,0,0,0-2.3-1.4l-.5.3c.2.5.2,1.1.5,1.4a21.19,21.19,0,0,0,4.5,4c4,1.9,6,5.1,8.6,7.8-1.8-1.6-3.7-3.2-5.6-4.7-1.1-.8-2.3-1.6-3.4-2.4l-.6.3c2.9,2.9,2.6,6.4,1.6,10.1a17.09,17.09,0,0,0,8-3.3ZM181,229.8c-.5.8-.8,1.8-1.6,2.3-2.6,1.8-2.6,2.9-.2,4.7-.2,1.4-4,.6-1.9,3.5,4.3-1.8,4.5-5.8,4.8-9.5a3.93,3.93,0,0,1,.3,1.4,10.41,10.41,0,0,0,.6,1.6c1.9-2.4,1.9-3.9.5-5.8l-2.5,1.8a18.45,18.45,0,0,0,3.9-8.5c0-.2,0-.3.2-.3,1.6-1.3,1-3.2,1-4.8-.2-2.4-.6-4.7-1-7.2a21.6,21.6,0,0,1-4.3,2.9c-1.6.6-3.4,1.3-5,1.8l1,3.7h2.9l-2.3,1.9.3.5,3.9-2.6c-.2.8-.2,1.1-.3,1.3-1,.8-1.8,1.6-2.7,2.3-1.4,1-.3,2.1-.2,3.1a7,7,0,0,0,2.3-.6c1.6-1.9,2.9-4,4.2-5.8a8,8,0,0,1-4,6.8,4.37,4.37,0,0,0-2.6,5.6,9.29,9.29,0,0,1,.5,1ZM20.3,249.2c-1.3.6-2.9,1.1-3.5,2.1-3.9,5.3-7.9,10.5-10,16.9A26.94,26.94,0,0,0,5.5,282c.8,4,1.4,7.9,2.4,11.9a24.25,24.25,0,0,0,2.6,6,35.62,35.62,0,0,0,2.6,3.1,13.1,13.1,0,0,0,5.3,4c-.6-1.8-1.1-3.1-1.6-4.3s-.3-3.1-1.1-4a9.63,9.63,0,0,1-2.7-7.4c.2-1.1-.5-1.8-1.6-1a9.29,9.29,0,0,1-1,.5c2.4-1.9,2.1-4.7,2.3-7.4l-2.6,1-.4-.4c.3-.3.6-.8,1.1-1.3a35.83,35.83,0,0,0,2.6-2.9c.3-.3,0-1,.2-1.4a2.77,2.77,0,0,0-1.8,0A33.15,33.15,0,0,0,8.3,280c.5-2.3,2.1-2.3,3.1-3.1s2.3-1.6,3.2-2.4l-.3-.6-3.2.2c1.4-1.9,4.8-1.3,4.8-4.7-1.3.3-2.3.6-3.4.8a5.77,5.77,0,0,1-1.4-.3c.3-.3.5-.8.8-1,.8-.5,1.9-1,2.7-1.4,1.6-1.1,3.1-2.3,4.5-3.4-3.7,1-4.8.8-5-1l2.3-.3-1.6-1.6a17.38,17.38,0,0,0,1.9-1c.5-.2,1-.3,1.4-.5l-3.2-1.1,5.8-.6v-.3l-3.4-1.3.2-.5c6.3,1,10.8-2.3,11.7-6.4-.5,0-1,.2-1.4.2-1.9.3-3.7.8-5.6,1a4.71,4.71,0,0,1-1.9-1.5c2.1-.3,4.5-.6,6.6-1.1.3,0,.5-.8.6-1.3,1.9,0,4,.6,5.8-1.6a4.66,4.66,0,0,0-2.1-.3,46.27,46.27,0,0,1-5.1.5c-.5,0-.8-.6-1.3-1.1a3.93,3.93,0,0,1,1.4-.3h1.9c2.6-.6,5.1-1.3,7.7-2.1,1.6-.5,3.2-1.1,4.8-1.6-1.9-.5-3.9-.3-5.5-1a22.16,22.16,0,0,1-4.8-2.7h5.6a35.05,35.05,0,0,0,5.6-.3c1.9-.3,3.5-.5,5.3-.8v-.6c-3.2-.2-6.8.5-9.5-2.1-3.5,1.8-4.2,1.9-6.8.3-3.5,2.3-5.8,5.8-8,9.2a23.48,23.48,0,0,0-1.8,4A13.52,13.52,0,0,1,20.3,249.2ZM77.7,388.6c2.3,1.4,4.2.3,4.7-2.9l-4.7,2.9c.3-1.4.3-3.2,1.1-4.3s2.7-1.4,4-2.1l-.2-.5-2.4-.2L80,381l4.8-3.9-.3-.5-2.7.6a9.21,9.21,0,0,1,1.3-2.4,2.54,2.54,0,0,0,.3-1.4c0-.2-.8-.3-1.1-.3H80l-.2-.6a43.2,43.2,0,0,0,4.5-1.9,4.51,4.51,0,0,0,2.6-4.5l-5.5,3.2-.3-.6a14.82,14.82,0,0,0,2.6-2.4c.6-.8,1.1-1.6,1.6-2.4H82.9c-.5-.2-1-.3-1.4-.5.2-.5.2-1.1.5-1.4s1.4-.6,1.9-1.3c1-1,1.6-1.9,2.6-3.1L86,357l-3.7,1.4-.3-.5a11,11,0,0,0,1.1-1.4,1.81,1.81,0,0,0,.3-1.3c-.2-1.1-.3-2.3-.5-3.5l-1.1-.6c1.1-1.6,3.9-1.4,3.9-4.5l-4.3,1.3a14.3,14.3,0,0,1,1.1-2.1c1-1,1.1-1.8,0-2.7s-.6-1.8.3-2.6l2.3-1.4-2.4-1.6,3.5-1.8-.3-.5-2.7-.6V334c1-.3,1.9-.6,2.9-1a15.77,15.77,0,0,0,2.6-1.3l-.3-.6c-1.1.3-2.4.6-3.5.8-.3,0-.6-.3-1.1-.5a2.41,2.41,0,0,1,.6-.8,8.42,8.42,0,0,1,2.1-1.1l-.2-.6a5.84,5.84,0,0,1-1.8-.2c-.6-.2-1.4-.5-2.1-.8,1.3-.6,2.6-.8,3.1-1.4a6.86,6.86,0,0,0,.6-3.1c-.5-.3-1.4-.8-1.6-1.4a3.52,3.52,0,0,0-3.9-2.3c-.6.2-1.3.3-1.9.5.3.6.3,1.6.8,1.9,1.4,1.1,2.9,1.9,4.8,3.1a5.24,5.24,0,0,1-1.8.2c-1.3-.3-2.4-.6-3.7-1-.6,0-1.6.2-1.8.6a2,2,0,0,0,.6,1.8c1.1.8,2.4,1.6,3.5,2.3l-1.8,2.6-2.1-.6-.5.5c.5.6.8,1.4,1.3,2.1s1,1.3.8,1.6c-1,1.9.2,2.6,1.6,3.2a5.67,5.67,0,0,1,1.3,1c-2.6,1.4-4-.6-6.3-1.6a12.76,12.76,0,0,0,4.2,6.9c-2.7-.2-4.2-2.7-6.8-3.5-.8,1.1-.3,1.8.5,2.6,1.8,1.8,3.2,3.7,4.8,5.6l-.3.5-3.1-.8-.3.6,3.2,3.2-.3.5-4.8-2.9a5.63,5.63,0,0,1-.2,1c1,1.8,3.2,2.9,2.4,5.5,0,0,.2.2.2.3l2.6,4.5-.3.3-3.4-1.4-.8,1,4.2,3.1-.3.6-5-2.7c1,1.9,3.1,3.1,2.9,5.5,0,.2.5.3.6.5.3.6.6,1.1,1,1.8a6.46,6.46,0,0,1-2.1.6,20.79,20.79,0,0,1-2.3-.3l6.4,8.4c-1.6,1.1-2.7,0-4-.5a4.53,4.53,0,0,0-1.6-.3,9.5,9.5,0,0,0,.6,1.8,16,16,0,0,0,2.9,1.9l-3.2.3,1.8,2.1-2.3,1c2.4,1,3.2,2.6,5.1,3Zm89-215.6a3.61,3.61,0,0,1-.2,4.2h-6.1l-3.4,6.4.8.8,3.9-5.1.6.5a16.75,16.75,0,0,1-6.1,7.1c3.7,3.1,4.8-1.4,7.4-2.4l-.3,1.9,3.5-1.8.5.8-6.8,4.2a5,5,0,0,0,6.6.8,6.65,6.65,0,0,1,2.1-.3l.2.5-4.2,2.4c.6.8,1.3,1.6,1.9,2.4a1.81,1.81,0,0,0,1.4.2c2.3-.6,4.5-1.3,6.8-1.9l.3.5-4.8,2.9c-.6.5-1.8.5-1.3,1.8a2,2,0,0,0,2.3,1.3c.2,0,.2,0,.3-.2a10.32,10.32,0,0,1,2.6-.3l.3.6c-.5.6-1,1.1-1.4,1.6-1.6,1.1-1.6,1.4-.3,3.1l3.5-1.4.3.5-3.4,3.2.6.8,6.6-3.7c-1.3,2.9-4.8,2.7-6.4,4.7l.3.8,6.8-1.3c-1.3,2.9-4.5,1.6-6.1,3.2,2.1,1.3,6.1.2,7.7-2.1,1-1.3,1.9-2.4,1-4.2-.2-.2.2-.5,0-.8-.3-3.4-.6-6.8-1.1-10a3.78,3.78,0,0,0-2.4-3.4c-.6-.2-1-1.3-1.4-1.9-1.6-2.9-3.1-5.6-4.5-8.5a10.34,10.34,0,0,0-2.4-3.1c-2.3-1.9-4.1-3.4-5.7-4.8,0-.3,0-.5-.2-.6-4-4.3-9.2-5.5-14.8-5.3-3.2.2-6.4-.5-6.1-4.2-2.4.2-4.3-1.9-7.2-1l1.8,2.4a5.32,5.32,0,0,1-6.6,1.8c-.8-.5-1.8-1.3-1.9-2.1s1.1-1.4,1.8-2.3c.2-.2.2-.3.3-.3-3.5,0-7.1-.2-10.6,0a12.91,12.91,0,0,0-6.1,1.3,15.93,15.93,0,0,1-6,2.1c-1.3,0-2.4.2-3.7.3-3.7,1.3-7.4,2.6-10.9,4.2-1.1.5-1.9,1.9-2.9,2.9a7.19,7.19,0,0,1-2.1,1.8c-1.8.6-3.9.6-5.6,1.4a46.94,46.94,0,0,0-5.8,3.5c-2.6,1.6-5,3.2-7.6,5-1.8,1.3-3.5,2.6-5.1,4a29.29,29.29,0,0,0-4.7,5.3c-2.3,3.1-4.2,6.1-6.4,9.3,2.4.6,3.9,1.9,3.9,3.5a5.53,5.53,0,0,1-4.3,5c-1.4.3-3.2,1-3.4-1.6a3.13,3.13,0,0,0-1.1.8c-1.4,1.9-2.9,3.9-4.2,6a2.59,2.59,0,0,0-.3,1.9c.3,2.3-1.1,4.8-3.1,4.5-4.5-.6-5.6,3.2-8.2,5.6,3.2,0,3.2.2,3.2,3.7,4.2,1.4,7.4,1.8,10,1l-.3-1.1,4.5.3v-.6l-6.3-1.6v-1.1c.6-.2,1.4-.6,1.9-.3,2.3,1.3,4.7.5,6.9.3,1.3-.2,2.6-.5,3.9-.6v-.5a23.84,23.84,0,0,1-10-3.1,3,3,0,0,1,2.1-.3c1.9.5,4,1,6,1.4s2.9.2,3.4-2.1c-1-.2-1.9-.3-2.9-.6-.6-.3-1-1-1.4-1.4.3-.3.8-.8,1.1-.8,1.9-.2,3.9,0,5.6-.2s3.1-.5,4.7-.8v-.6H65.4a33.89,33.89,0,0,1-4.5-.2,3.13,3.13,0,0,1-1.1-.8,5.39,5.39,0,0,1,.3-1,2.15,2.15,0,0,1,1.1.2,3.93,3.93,0,0,0,1.4.3,31.42,31.42,0,0,0,5.3-.3c2.7-.3,5.5-.8,8.2-1.1v-1c-1-.2-2.1-1-3.1-.6a7.6,7.6,0,0,1-5.8-1.1c1.3-1.9,2.9.6,4-.5V210c2.3,2.6,4.3,3.4,7.4,2.3a31.49,31.49,0,0,1-3.1-2.7c-.8-1-2.4-1.4-1.6-3.2.3,0,.5.2.6.2,2.9,2.9,6.4,3.4,10.3,3.5,1.1,0,2.6.2,2.6-1.6-2.1-.6-4.2-1.1-6.1-1.8a15,15,0,0,1-4.3-2.4c-.6-.5-1.8-1.3-.6-2.7,3.9,3.9,8.5,4.2,13.8,3.4l-.8,1.4.3.2,2.9-1.8a31.86,31.86,0,0,0-3.4-1.3c-1-.3-1.9-.6-3.2-1.1l3.1-1.9c3.2,2.3,5.6,2.6,7.7.5-1-.2-1.6-.5-2.4-.6a7.41,7.41,0,0,1-5.6-3.9c-.2-.3.2-1.1.3-1.6.3.2,1.1.3,1.1.6.6,1.8,2.3,1.6,3.5,2.3.3-2.4-3.4-3.1-2.6-6.3,3.7,3.9,8,4,12.9,3.9-1.8-1.3-3.9-2.1-4.3-3.5s-2.1-3.1-.8-5.1c2.1,2.1,2.9,5.1,6.4,5.6a40,40,0,0,1-1.9-4.5c-.5-1.4-1.3-2.7,0-4.5a18.81,18.81,0,0,0,5.3,8.2c-1.1-3.1-3.7-5.1-3.2-8.4,2.6,1,1.6,4.7,4.7,5.3.3-2.4-1.3-4.7.8-7.1.2,1.3-.2,2.6.3,2.9a16.34,16.34,0,0,1,2.6,4.7,2.38,2.38,0,0,0,2.9,1.6,9.29,9.29,0,0,1,1-.5c-1-2.1-1.9-4.2-2.9-6.3-.5-1.3-1.3-2.7.3-4.2l1.6,4.7,1.9-1c.2,1.1.3,1.9.5,2.9s.2,1.6.3,2.3h.5c-.2-4.2-.8-8.5,1.6-12.2l.5.2-.6,8.7h.6a44.76,44.76,0,0,1,1.1-5c.6-2.1,2.3-3.5,3.2-3.4l-2.1,5.6.5.3,1.4-.5a6.71,6.71,0,0,1-1,2.3,17.38,17.38,0,0,1-1,1.9l.6.2c2.3-2.9,2.9-6.3,4-9.5.5-1,1-1.9,1.4-2.7l.6.3c-.3,3.5-2.9,6.8-.8,10.8,1.4-3.2,1.4-6.6,3.5-9.2l.5.2-.6,4.2,2.9-4,.3.3-.8,2.3.3.2,3.1-4.7.5.3c-.5,2.7-3.4,4.5-2.9,7.9,3.5-2.4,5.1-6.3,7.6-9.3a32.24,32.24,0,0,0-2.3,9l.6.3,6.3-9.2,1,5.8,2.6-3.7c-.3,4-2.9,6.9-4.5,10.1,2.3,1.4,4-.2,6.1-2.9.3-.5.6-1.3,1-1.3,2.3.2,2.7-1.6,3.4-3.1.3-.8.8-1.8.6-2.4-.6-1.4-.2-2.4,1.1-2.6a20.92,20.92,0,0,1,6.4-.7ZM88.8,380.2l.8.2c1-2.4,2.6-4.8,2.6-7.2a14.24,14.24,0,0,1,1.4-6,102.94,102.94,0,0,0,8-22.8,54.28,54.28,0,0,0,1.1-8.8c0-1.8-1-2.1-2.3-.8a9,9,0,0,0-2.3,3.2c-1.6,3.9-2.9,7.7-4.3,11.6-1.3,3.5-2.4,7.2-3.4,10.9a92.37,92.37,0,0,0-1.6,11.6C88.7,374.9,88.8,377.6,88.8,380.2ZM19.5,286.1a5.91,5.91,0,0,0,1.4-.6,12.6,12.6,0,0,1,8.7-1.8c2.9.5,5.5-.6,7.9-1.8a17.38,17.38,0,0,0,1.9-1c4-1.8,8-3.4,12.1-5.3,4.3-1.9,8.7-4.2,13-6.1,2.1-1,4.2-1.6,6.3-2.4v-.6a3.75,3.75,0,0,0-2.1,0c-4.5,1.6-9.2,3.4-13.7,5.1a11.2,11.2,0,0,1-2.3.6l-.2-.5,4.8-2.6a9,9,0,0,0-4.2,1,43.26,43.26,0,0,1-20.3,4.7c-3.5,0-7.1-.3-10.5,1.4a4.22,4.22,0,0,0-2.7,3.7c-.2,1.4.3,2.1,1.8,1.8a74.28,74.28,0,0,0,9.3-2.3c3.7-1.3,7.4-2.9,11.3-4.2a44.27,44.27,0,0,1,5.5-1.3,1.82,1.82,0,0,1-.5.8,30.26,30.26,0,0,0-10.6,3.9c-1.1.6-2.6.5-3.7,1A30.78,30.78,0,0,1,20.8,283C19.3,284,19.1,284.8,19.5,286.1Zm.5,10.4c1.1,1.9,1.9,3.7,2.9,5.3a2.33,2.33,0,0,0,1.8.6,21.08,21.08,0,0,0,6-3.4c2.9-2.4,4.8-5.5,8.2-7.4s5.6-5,8.8-6.9c5.1-3.1,10.8-5.6,16.1-8.5a43.15,43.15,0,0,0,6.3-4.2l-.3-.5c-.5.2-1,.3-1.4.5l-14.2,5.5a15.3,15.3,0,0,0-3.2,1.3c-4.2,2.6-8.4,5.3-12.6,8l-3.9,2.4c-2.9,2.3-5.8,4.8-9.5,5.8Zm13.8-42.6a9.29,9.29,0,0,0,1,.5c6.1.3,11.4,2.9,16.9,5.1,6.4,2.7,13,3.9,20,1.1a11.78,11.78,0,0,1,4.2-.3h4c-.8-1-1.1-1.6-1.8-1.9a10.21,10.21,0,0,0-8-1.1,9.18,9.18,0,0,1-6.9.2,31.3,31.3,0,0,0-5.1-1.9c-4.3-1-8.7-1.8-13-2.9a16.42,16.42,0,0,1-3.9-1.4c-3.1-1.8-2.9-1.9-5.3.8A4.1,4.1,0,0,0,33.8,253.9Zm46.3,20.8v-.8c-2.4-.2-5-.8-7.1-.3a19.28,19.28,0,0,0-11.4,7.9,45.88,45.88,0,0,1-15.8,12.9,12.94,12.94,0,0,0-3.9,2.3c-3.1,3.2-5.8,6.6-8.8,10.3,2.1.2,4,.3,6,.5a1.9,1.9,0,0,0,1-.6c-.3-1.9,1.6-2.3,2.4-3.4a25.08,25.08,0,0,1,2.3-2.1l6.1-5.3q3.6-2.85,6.9-6c3.7-4,7.2-8.5,10.9-12.6A9.18,9.18,0,0,1,79,274.8c.3,0,.6-.1,1.1-.1Zm30.3-10.5-.2.3a16.37,16.37,0,0,0,4.8,2.3,96.56,96.56,0,0,0,11.7,1.6c4,.3,8,.5,12.2.6h1.4c3.2,1.1,6.4,2.3,9.8,3.2,2.7.8,5-.6,5-3.2a1.64,1.64,0,0,0-1-.2A14.14,14.14,0,0,1,147,267a18.84,18.84,0,0,0-8.8-2.7,32.69,32.69,0,0,1-5.6-1,17.61,17.61,0,0,0-4-.2c-2.4.2-4.8.6-7.2.6a78.83,78.83,0,0,1-11,.5ZM59.9,281.6l-.5-.6a31.61,31.61,0,0,0-6.8,2.6A131.59,131.59,0,0,0,37,294.9c-3.5,3.1-6.3,6.8-10.6,8.5a1.81,1.81,0,0,0-.2,1.4,4.8,4.8,0,0,0,4.5,1c3.1-1.1,5-3.5,6.9-5.8a24.71,24.71,0,0,1,4.7-5c3.5-2.6,7.7-4.5,11.3-7.1q3.3-3,6.3-6.3Zm16.8-25.5.3-.8a15.91,15.91,0,0,0-2.6-1.4,14.6,14.6,0,0,0-3.4-1c-2.9-.6-6-1.6-8.8-2.1s-6.4-.3-9.5-1.1a30.74,30.74,0,0,1-7.1-3.4c-2.9-1.4-4-1.3-6.1,1.8a11.22,11.22,0,0,0,3.2,2.3c3.1,1.1,6.1,2.1,9.3,3.1,4.2,1,8.7,1,12.6,3.4a3,3,0,0,0,2.1.3,15.24,15.24,0,0,1,10-1.1Zm44-58.2-.5-.3a21.37,21.37,0,0,0-4.2,1.6,6.19,6.19,0,0,0-2.4,2.9,84.57,84.57,0,0,0-.5,8.7,64.21,64.21,0,0,1-.3,9.8,25.27,25.27,0,0,0,.2,9.5c.6,5-1,9.2-2.9,13.4a17.68,17.68,0,0,1-2.1,3.2l.6.5c1.9-2.7,5.1-4.5,5.8-7.9a79.41,79.41,0,0,0,1.3-13.7c.2-4.8,0-9.7,0-14.5.2-3.9,2.3-7.1,3.9-10.5A9.53,9.53,0,0,1,120.7,197.9Zm25.7-1.8-.2-.6c-1.6,0-3.5-.5-4.8.2s-2.3,2.4-3.2,3.7c-1.6,2.3-3.4,4.5-4.8,6.8a59.26,59.26,0,0,0-5.1,8.8c-1.9,5.1-3.2,10.5-5,15.6a18.59,18.59,0,0,1-2.7,5c-.8,1.4-1.8,2.7-2.6,4.2l.8.5c1.4-2.1,2.9-4,4.2-6.1.3-.5.3-1.1.6-1.6,2.1-3.9,4.2-7.6,6.3-11.4.8-1.3,1.4-2.6,2.1-3.9,1.6-4,3.1-8,4.7-11.9a6.53,6.53,0,0,1,1.3-1.6c2.3-2.1,4.7-4,7.1-6.1.4-.4.8-1.1,1.3-1.6Zm-17.2,38.7.5.5c1.8-1.3,4-1.6,5.1-4a81.86,81.86,0,0,1,4.5-7.7c1.3-2.1,2.6-4.2,4-6.3,2.9-4.2,5.6-8.5,8.7-12.6a17.19,17.19,0,0,1,3.9-3.1c-1-.6-1.3-2.9-2.7-1.3a93.21,93.21,0,0,0-8.8,9c-3.4,4.3-7.1,8.4-9,13.7a68.49,68.49,0,0,1-3.7,7.1,23.35,23.35,0,0,0-2.5,4.7Zm-84,8.8-.2,1c3.4,1.3,6.8,2.7,10.1,3.7,2.3.3,4.5.6,6.9.8a78.63,78.63,0,0,1,8.4,1.9c2.1.5,4,1.3,6,1.9l.5-.8c-1.1-.8-2.4-1.6-3.7-2.4-2.7-1.4-5.3-2.9-8-4-4.2-1.8-7.7-4.3-12.4-5-3.6-.5-5.5,1.1-7.6,2.9Zm106.2-45.5c-1.6-1-3.1-1.6-4.5-.3-1.9,1.8-4,3.5-5.8,5.3a32.19,32.19,0,0,0-3.9,4.3,56.67,56.67,0,0,0-3.2,7.2c-1,2.3-1.8,4.7-2.9,7.1-1.8,3.7-3.9,7.4-5.6,11.1a.88.88,0,0,1,.2.6,22.33,22.33,0,0,0,7.2-9.7,31.81,31.81,0,0,1,5.6-10.8c3.1-3.5,6.1-7.2,9.2-10.9,1-1,2.3-2.5,3.7-3.9ZM48.8,308.1l.2.8c1.9-.3,4-.3,5.6-1.3a20.7,20.7,0,0,0,4.8-5c1.9-2.6,3.4-5.8,5.8-8,4.7-4.7,6-11.1,9.2-16.6a31.36,31.36,0,0,0-4,3.4c-2.7,3.4-5.5,6.9-8,10.5a16.5,16.5,0,0,0-2.9,3.9A31,31,0,0,1,48.8,308.1Zm103.7-71.9.2.6a20.22,20.22,0,0,0,2.7-.3c3.4-1,6.8-2.1,10-3.1a5.24,5.24,0,0,1,1.8.2,21.14,21.14,0,0,1-5.5,3.1c-2.6.8-5.1,1.3-7.7,1.9a31.23,31.23,0,0,0-4.8,1.8c-2.6,1.1-5.1,2.4-7.6,3.5l-2.4,1.1a16.37,16.37,0,0,1-4.8,2.3c-1.8.3-2.4,1.4-3.4,2.6a6.15,6.15,0,0,0,1.9-.2c3.2-1.3,6.6-2.4,9.7-3.9,2.9-1.3,5.3-3.2,8.7-3.5.3,0,.6-.5,1-.6,3.4-1.8,6.6-3.7,10.5-3.7a26.73,26.73,0,0,0,4.8-.8c.3-.2,1-.5,1-.8.2-1.9,0-4,0-6.1A23.92,23.92,0,0,0,152.5,236.2Zm-111,71.4a5.39,5.39,0,0,0,4.8.3c4.3-1.8,6.8-5.3,9.5-8.7,1.8-2.3,2.9-5.1,4.5-7.6,2.1-2.9,4.5-5.6,6.8-8.5a44,44,0,0,0,2.6-3.9,1.82,1.82,0,0,0-1.1.2c-2.4,2.7-4.8,5.6-7.4,8.4-1.1,1.4-2.3,2.9-3.5,4.3-3.2,2.9-6.8,5.5-10.1,8.4a16.45,16.45,0,0,0-2.6,2.7c-.6.8-.8,1.8-1.4,2.6a8.75,8.75,0,0,1-2.1,1.8Zm62.8-68.3.3.2c.5-.6,1.1-1.4,1.6-2.1a9.29,9.29,0,0,0,.5-1,25.54,25.54,0,0,0,1.1-18.8,17.93,17.93,0,0,1,0-9.2c.3-1.9.6-3.9,1-6.3a12.8,12.8,0,0,0-5.6,4,1.81,1.81,0,0,0-.2,1.3,38.2,38.2,0,0,0,1.1,5.1c.6,4,1.6,8,2.1,12.1a24.42,24.42,0,0,1-.3,6,88.45,88.45,0,0,0-1.6,8.7ZM40.5,283.5l-.3-.6c-.5.2-1,.5-1.3.6-2.7,1-5.5,2.3-8.5,1.8a15.48,15.48,0,0,0-4.3,0c-4.2.5-6.8,3.1-6.8,6.6,0,2.7,1,3.5,3.5,2.6a51.35,51.35,0,0,0,6.6-3.4c2.9-1.8,5.6-3.5,8.4-5.5C38.8,285,39.6,284.1,40.5,283.5Zm79.7-29,.2.6c2.4-.3,4.8-.5,7.1-1,2.9-.6,5.6-1.8,8.4-2.4,6.1-1.4,12.2-3.2,17.5-6.8a22.64,22.64,0,0,1,4.2-2.6,17.23,17.23,0,0,1,9.8-.3c.2-.6.3-1.1.5-1.8a4.68,4.68,0,0,0,.2-1.6h-1.8a18,18,0,0,1-3.2.6,11.22,11.22,0,0,0-6.9,1.6c-1.8,1-3.5,1.8-5.3,2.6-3.9,1.6-7.9,3.2-11.7,4.8a34.14,34.14,0,0,1-6.3,2.7c-4,.8-7.7,3.2-12.1,3.1a1.47,1.47,0,0,1-.6.5Zm-94,9.1c2.9,1,33,1.6,34.4.6a9.68,9.68,0,0,0-1.1-.3c-5.5-1-11.1-1.9-16.7-2.9-3.4-.5-6.8-1-10.3-1.3C28.6,259.5,27.7,260.2,26.2,263.6Zm51.5-36.1c-.2.2-.6.3-.6.5-.3,2.6-1.6,5.1-.3,7.7a29.15,29.15,0,0,1,4,14.6c0,2.9,1.6,3.9,4.2,3.2a67,67,0,0,0,.8-7.7,21.57,21.57,0,0,0-.6-5.1c-1.1-3.7-2.4-7.4-3.5-11.1-.3-1.1-.3-2.4-.5-3.5h-.3a10.39,10.39,0,0,0-.3,5.8c1.3,6.1,2.7,12.2,3.9,18.5,0,1-.2,2.1-.3,3.1h-.8ZM56.8,307.3l.3.5c2.7-.5,5.8-.3,7.2-3.9a12.71,12.71,0,0,1,1.8-2.7,98.56,98.56,0,0,0,6.1-10,78.44,78.44,0,0,0,2.7-7.7,7.56,7.56,0,0,1,3.9-5c.6-.3,1.1-1.3,1.6-1.9l-.5-.6a5.66,5.66,0,0,0-2.4,1.4,30.85,30.85,0,0,0-4.2,6A46.79,46.79,0,0,1,67,294.5c-2.4,2.9-4.5,6.1-6.8,9-1.2,1.4-2.3,2.7-3.4,3.8Zm101.5-41.2c-1.8-.5-3.2-1-4.7-1.4-2.4-1-5.1-1.4-7.1-2.9a12.32,12.32,0,0,0-11.6-2.6l-8.7,2.3c-1,.2-1.9.5-2.9.6l.2.6,3.4-.3a13.82,13.82,0,0,1,3.5-.3,44.17,44.17,0,0,1,6,1c3.5.6,7.2,1,10.3,2.4a25.77,25.77,0,0,0,8.5,2.4c1-.2,2.2,0,3.1-1.8Zm.2-63.5c-.8,0-1.3-.2-1.4,0-2.6,2.9-6.1,4.5-8,8.2a77,77,0,0,1-5.5,8.5c-1.3,2.1-2.7,4-4,6.1s-2.6,4.3-4.2,6.9c1.1-.3,1.8-.3,2.1-.6a44,44,0,0,0,3.9-3.5,76.64,76.64,0,0,0,5.6-8.4c2.7-4.5,5.5-9.2,8.2-13.7a22.26,22.26,0,0,1,3.3-3.5ZM90.4,244.4a32.31,32.31,0,0,0,3.7-16.1,9.81,9.81,0,0,0-2.1-6.9,4.78,4.78,0,0,0-2.3-1.3c-.3,0-1,.8-1.1,1.3a29.68,29.68,0,0,0-.3,5.1c.5,4.8,1,9.8,1.6,14.6a13.22,13.22,0,0,0,.5,3.3Zm-32.6,23-.2-.6-7.2-.5a75.37,75.37,0,0,0-8.2-.6,66.62,66.62,0,0,1-14.8-.3c-2.3-.3-2.9.2-3.7,2.3-.3,1.1-.3,1.6,1.1,1.4,2.3-.2,4.7-.3,7.1-.3,2.7,0,5.3.5,8,.5,3.5,0,7.1-.2,10.5-.5,2.4-.4,4.8-.9,7.4-1.4ZM21.2,275l.3.6c4-2.3,8.4-1.3,12.6-1.6a84.41,84.41,0,0,0,13-2.3c.6-.3,1.1-.6,1.8-1a2.51,2.51,0,0,0-1.4-.6H37.3c-4.5,0-9,.2-13.7.2a1.52,1.52,0,0,0-1.1.6c-.6,1.7-.9,2.9-1.3,4.1Zm141-61.5c-2.7,2.7-5.6,5.3-8.2,8.2-2.7,3.2-5.1,6.8-7.9,9.8-2.1,2.4-4.5,4.7-6.8,7.1-1.8,1.9-3.5,3.9-5.5,5.8a45.7,45.7,0,0,0,6.9-5.6c2.7-2.6,5.3-5.5,8.2-7.9a135.44,135.44,0,0,0,13.8-13.5c1.1-1.5,1.1-2.6-.5-3.9Zm5.1,30.1a9.87,9.87,0,0,0-9.7.5,52.85,52.85,0,0,1-19.1,8c-3.4.6-6.6,1.8-10,2.7l.2.6c1-.2,1.9-.3,2.9-.6,2.3-.6,4.5-1.3,6.8-1.8,3.2-.8,6.6-1.4,10-2.1,4.8-.8,9.2-4,14.3-3.9,1.3,0,2.6-.2,3.9-.3ZM117,236.4l.3.2c.2-1.4.5-2.7.6-4.2.3-3.4.8-6.8,1.1-10.1a47.24,47.24,0,0,0,1-6.4,27.27,27.27,0,0,1,3.2-13.8,36.81,36.81,0,0,0,1.8-5.3c-1.9,0-2.9.5-3.1,2.3a11.26,11.26,0,0,1-1.3,2.7,59.28,59.28,0,0,0-2.9,6.9,59.89,59.89,0,0,0-.8,9.5c-.1,5.9.1,12,.1,18.2Zm34.1,38.3a.37.37,0,0,0-.2-.3c-4.8-1.6-9.3-3.5-14.6-3.9-4.8-.2-9.7-1-14.5-1.3h-2.4v.5a24.69,24.69,0,0,0,6,1.9,40.29,40.29,0,0,0,8.5.2,8.13,8.13,0,0,1,6.4,1.8c1.3,1,2.7,2.1,4.2,3.1,2.6,1.8,5.1,1,6.6-2Zm-52-29.3,1,.2a20,20,0,0,0,1.9-4.2c1-3.2,1.6-6.4,2.3-9.7.5-3.7,1.3-7.4-.2-10.9a21.28,21.28,0,0,1-.8-2.7c-.3-2.4-.5-4.7-.8-7.1a19.3,19.3,0,0,0-1.1-3.4h-.8a7.08,7.08,0,0,0-.5,2.6c0,1.1.5,2.3.5,3.5a18.48,18.48,0,0,0,0,4.7c.5,3.1,1.4,6.1,2.1,9.2,1,5,.8,9.7-2.4,13.8a3.86,3.86,0,0,0-1,1.9A3.53,3.53,0,0,0,99.1,245.4Zm46.4-18.5.5.3c1.3-1.9,2.6-3.9,3.9-5.6a23.71,23.71,0,0,1,3.2-3.9c2.3-1.8,4.8-3.4,7.1-5.1,3.1-2.4,3.1-2.4,1-5.8a5.58,5.58,0,0,0-.5-.8c-.5-1.1-1.3-1.3-1.9-.3-2.1,2.9-4.2,6-6.1,9-2.3,3.5-4.3,7.2-6.4,10.8a6.38,6.38,0,0,0-.8,1.4Zm-86,8.8c4,3.2,7.9,6.4,11.7,9.5a12.42,12.42,0,0,1,2.9,2.7c.5.8.6,1.9,1.6,1.6a3.65,3.65,0,0,0,1.6-2.6c0-2.3-3.1-5.1-5.5-5.3l1.3,1.6a25.45,25.45,0,0,1-5.3-4,10.76,10.76,0,0,1-2.4-3.2c-1.3-2.7-2.1-3.1-4.7-1.3-.2.2-.7.5-1.2,1Zm79.7,6,.6.8,6.4-4.3c2.4-1.6,3.9-4.3,6.1-6.1,4.7-3.5,9-7.9,13.5-11.9.3-.3,1-1.3.8-1.4a4.89,4.89,0,0,0-1.8-1.4c-.2-.2-1,.5-1.3,1-3.1,3.4-6,6.9-9.3,10.1-4.9,4.5-10,8.8-15,13.2Zm-20.3,49.7a37.75,37.75,0,0,1-5.1-6.8,66.88,66.88,0,0,0-7.1-11.6c-1.1-1.4-2.6-2.6-4-4.2-1,3.4.8,5,2.4,6.8a11.76,11.76,0,0,1,2.4,3.1,30.1,30.1,0,0,0,1.9,3.5c1.4,2.3,2.7,4.5,4.2,6.8S117.1,292.2,118.9,291.4Zm20.4-96.2c-4.5-1.4-6.1.6-6.9,2.9a30.13,30.13,0,0,1-1.6,3.1c-1.3,1.8-2.6,3.7-3.7,5.6a13.68,13.68,0,0,0-.3,4.5l.5.2ZM80.8,279.3l-.5-.3a5.82,5.82,0,0,0-1.1.5c-2.6,1.6-3.4,4.5-4.2,7.2s-1.1,5.3-2.4,7.6c-1.9,3.4-4.5,6.4-6.8,9.8a6.28,6.28,0,0,0-.3,1.9,16,16,0,0,0,2.3-.3,2.56,2.56,0,0,0,.8-1.9,17.52,17.52,0,0,1,3.5-7.1,89.56,89.56,0,0,0,6.1-9.5A52.19,52.19,0,0,0,80.8,279.3Zm65-.8c-2.6-1.6-5.1-3.2-7.9-4.7a6.34,6.34,0,0,0-2.9-.8,19.41,19.41,0,0,0-3.5.2l-6.1.3a4.1,4.1,0,0,0,1.6,1.6,9.87,9.87,0,0,0,7.7.8,4.31,4.31,0,0,1,2.9.5,17,17,0,0,1,2.9,3.1c1.4,2.1,4,1.8,5.3-1Zm4.5-26.5v.5l9.8,1.3c4,.5,4.3.3,5.6-3.5.5-1.4,0-1.8-1.4-1.9-5-.3-9.4,2.3-14,3.6Zm-27.2,38.1v-.5a83.58,83.58,0,0,1-6.1-5.8,13.09,13.09,0,0,1-2.4-3.7c-2.3-4.7-4.5-9.3-9.2-12.2a13,13,0,0,1-2.3-1.8l-.3.3a7.38,7.38,0,0,0,.8,1.3A60.33,60.33,0,0,1,114.7,284a12.3,12.3,0,0,0,6.3,5.8,3.2,3.2,0,0,0,2.1.3Zm18.7-33.5a3,3,0,0,0,1.3.2h8a24.66,24.66,0,0,1,7.9,1.9c2.3,1,4.2,0,4.3-1.8a1.6,1.6,0,0,0-.8-1.4c-1.8-.3-3.4-.3-5.1-.5a58.65,58.65,0,0,1-8.5-.6c-3-.7-5.1.5-7.1,2.2Zm17.5,11.1.3.3a3.92,3.92,0,0,0,.8-1c1.8-2.9,3.5-5.8,5.1-8.8,1.4-3.2,2.7-6.4,3.9-9.7a12.9,12.9,0,0,0,1.1-6.8c-.2-.8,1.1-1.6,1.3-2.6.2-2.4,0-5,0-7.6-1.8.5-1.4,1.9-1.4,2.9a56.4,56.4,0,0,1-3.9,18c-1,2.6-1.9,5.3-3.1,7.9C162.3,263.1,160.6,265.3,159.3,267.7Zm1.8-7a3.75,3.75,0,0,1-2.1,0c-2.9-1.4-6-2.7-9.3-2.1-1.3.2-2.4.5-3.7.6a37.12,37.12,0,0,0,3.2,2.3c2.3,1,4.5,1.4,6.8,2.3,2.8,1,4.4.1,5.1-3.1ZM70.2,305.9c1.6-.8,3.4-1.1,4.2-2.3a43.49,43.49,0,0,0,3.5-7.6c.8-1.9,1.3-3.9,2.1-6.3C76.4,292,70.2,302,70.2,305.9Zm27.9-66,.5.2a2.09,2.09,0,0,0,1-.8c1.9-3.7,1.9-7.7,1.1-11.6-.8-4.8-2.9-9.5-2.3-14.6a7.64,7.64,0,0,0-.6-2.7l-.5.2c-.3,1.9-.6,4-.8,6a10.28,10.28,0,0,0,1.1,6A15,15,0,0,1,99,235.5c-.2,1.3-.5,2.8-.9,4.4ZM86.6,223c-2.1.3-3.1,1.3-3.1,3.2a11.53,11.53,0,0,0,.2,3.7c1.1,3.7,2.4,7.2,3.5,10.9l.6-.2C89,234.8,86.1,229,86.6,223Zm80.7,5.8c1.6-1.3,1.4-3.7-.5-7.2l-10.6,8.8.2.5,5.5-1.9,5.6-1.9Zm-56.8,40.9c1.9,3.2,3.7,6.6,5.3,10,1.3,3.1,3.7,4.3,6,6.4.6-3.1-6.4-13.2-11.3-16.4Zm-9.1-17.4.8.5a9.66,9.66,0,0,0,1.9-2.6c2.3-5.3,4.5-10.8,6.6-16.1a9.71,9.71,0,0,0,0-3.4h-.6a9.83,9.83,0,0,1-.5,1.6,40,40,0,0,1-2.3,6.3c-1.4,2.9-3.4,5.6-4.8,8.7A14,14,0,0,0,101.4,252.3Zm-71.2,6.1c6-1.3,11.3,2.3,17.1,1.1a2.72,2.72,0,0,0-1-.8c-4-1.1-8-2.1-12.1-3.1-2-.6-3,.2-4,2.8Zm21.6-19.3a32.77,32.77,0,0,1,5.6,1.4c3.1,1.4,6,3.2,8.8,4.8a7.27,7.27,0,0,0,2.1.6,3.48,3.48,0,0,0-1.1-1.3c-3.4-2.6-6.6-5.1-10-7.9-.3-.2-.8-.5-1-.3-1.2.8-2.6,1.7-4.4,2.7Zm25.4,3.1.3-.5a41.52,41.52,0,0,1-2.9-6,46,46,0,0,1-.5-6.4c-3.2.3-3.2.3-2.9,3.4,0,1.1.2,2.1.3,3.2a9.19,9.19,0,0,0,1.4,3.5C74.5,240.5,75.8,241.3,77.2,242.2Zm10,53.2c.2.6,0,1,.3,1.3a9.63,9.63,0,0,0,6.6,1.6,2.13,2.13,0,0,0,1.1-1c.6-.6.6-1.3-.3-1.8a11.31,11.31,0,0,1-2.6-2.3c-1.8,1.1-3.2-2.6-6-1l4.2,2.6-.2.5H87.2ZM103,283.5l-.6.2c0,1.1.2,2.3.3,3.4.5,1.8,1.3,3.5,1.8,5.5a4.44,4.44,0,0,1-.2,2.3h-.5l-1.4-3.9-.6.2a42.74,42.74,0,0,0-1.3,4.8c-.2,1.1.6,1.3,1.4,1,1.4-.6,2.9-1.3,4.2-1.9a2.2,2.2,0,0,0,.3-1.8c-.5-1.3-1.3-2.4-1.8-3.5C104.1,287.5,103.5,285.6,103,283.5Zm3.2-17.7a8.83,8.83,0,0,0,1.1,1.3,21.38,21.38,0,0,1,3.9,1.6c2.7,2.1,5.8,4.2,7.1,7.6a5.72,5.72,0,0,0,1.1,1.6C118.6,271.9,115.5,267.4,106.2,265.8Zm-9.5-39.1h-.5c-.3,2.7-.3,5.5-.8,8.2s-1.4,5.5-2.1,8.2a3.08,3.08,0,0,0,0,1.9h.5c2.7-5.7,4.2-11.9,2.9-18.3Zm24.6,31.4c8-.3,15.4-.3,22.2-4.7Zm3.7-10.3c6.1-2.9,14.8-10.8,15.9-14.3Zm-14.6,11.1a1.8,1.8,0,0,0,1.1.3,22.14,22.14,0,0,1,8.5,1.1c1.8.5,3.7-.2,5.6-.3v-.6a2.77,2.77,0,0,1-1.8,0A13.3,13.3,0,0,1,119,258a6.23,6.23,0,0,0-8.6.9ZM70.5,240.4l.3-.3-2.1-9-4.2,2.3Zm20.7,71.9L87.7,310l-.2-.8,1.8-.6-.3-.5-5.8-.5c.2,3.1,3.1,2.7,4.5,4.2l-.6,1.4c2.5,1,3.2.9,4.1-.9ZM49.7,311v-.6l-16.1-2.1-.2.8c5.4,1.6,10.7,2.7,16.3,1.9Zm69.2-58.9c2.1-1,4-1.4,4.5-3.9.2-1.1,1.4-2.1,2.4-2.9a47,47,0,0,1,4.3-3.5l-.3-.3c-1.1.5-2.3.8-3.2,1.3a5.33,5.33,0,0,0-1.9,1.3,63.35,63.35,0,0,0-5.8,8Zm-1.6,10,.2-.6a10.55,10.55,0,0,0-2.4-.6c-2.1-.3-4.2-.3-6.1-.6a2.66,2.66,0,0,0-3.2,1.9v.2h11.6v-.3ZM82.1,293.2l-1-.3-4.3,9.5.3.5c1-.5,2.4-.8,2.7-1.6C80.6,298.6,81.4,295.9,82.1,293.2Zm41.8-88.9c1.4-.2,5.6-6.3,6.1-8.7-1.9-.5-2.6-.3-3.2,1.1C125.7,199.2,124.9,201.6,123.9,204.3ZM82.7,316.2c1,2.6,2.1,3.5,3.5,3.2a21.49,21.49,0,0,0,3.2-1.3c.3-.2.6-.5.6-.8s-.3-.6-.5-.6A8.9,8.9,0,0,0,82.7,316.2ZM121.8,245a8.43,8.43,0,0,0-6.6,5.6c2.3.6,6.4-3,6.6-5.6ZM68.9,270A31.84,31.84,0,0,0,56,275.3C60.8,274.7,64.7,271.8,68.9,270Zm20.2-12.4c0-.6.2-1.3.2-1.9a18,18,0,0,1,1-4,5,5,0,0,0,.3-4.3c-1,2.1-1.9,4.5-2.9,6.8-.7,1.5.2,2.4,1.4,3.4ZM157,274.5c2.6-.2,6.8-5.5,6.3-8.4ZM93,302.2c0-2.3-3.9-4.5-5.1-3.5a1.2,1.2,0,0,0,0,1.4,34,34,0,0,0,2.9,2.6c.3.2,1,0,1.4,0A9.21,9.21,0,0,1,93,302.2Zm-5.6,2.4-.3,1c1.1.5,2.1,1.3,3.2,1.1a8,8,0,0,0,3.2-1.6l-.3-.6Zm61.4-127.8-.6-.3a24,24,0,0,1-5.8,7.6,3.51,3.51,0,0,0-.6,1.4c.5,0,1.1.2,1.4-.2a7.1,7.1,0,0,0,1.9-2.3,35,35,0,0,0,3.7-6.2ZM94.1,275.3l-7.4-.6c1.4,1,2.6,1.6,3.5,2.3,2,.9,3.1.4,3.9-1.7Zm2-5.6-.5-.5-4,3.4a1.08,1.08,0,0,0,0,1.1c.2.3.6.3,1.1.2a6.84,6.84,0,0,0,3.4-4.2Zm-8.7,14.1a19.18,19.18,0,0,0,3.5,2.3c.5.2,1.4-.8,2.3-1.3l-.2-.5c-1.8-.5-3.2-1.9-5.6-.5Zm47.9-98.1c4.2.2,4.8-.6,5.3-5Zm-10.8,26-.5-.2-1.9,9c2-2.5,3.4-5.4,2.4-8.8Zm-70.6-2.2c2.6.8,3.2-1,4-1.8a6.23,6.23,0,0,0,.3-2.1l-.8-.3Zm70.6-4.4c-2.4.8-3.9,5.6-2.6,7.6Zm48.6,7.3-.8.2c.2,1.4.2,3.1.3,4.5,0,.3.8.6,1.3.8.2-.3.8-.8.6-1.1a45.57,45.57,0,0,1-1.4-4.4Zm-45.3,21.7-5.1,4.7c3-.5,4.9-1.6,5.1-4.7ZM94.8,251c3.2-1.6,3.7-2.9,1.8-4.5Zm55,32.7-.5-.6-5.1,3.5.3.6C146.1,285.6,148.8,286.1,149.8,283.7ZM70.2,308.3l-6,1.1C65.5,310.9,67.6,310.5,70.2,308.3Zm104.9-78.4h1v-4.2a.79.79,0,0,0-.8-.5c-.3.2-.8.5-.8.6.1,1.4.4,2.7.6,4.1Zm-108-5.3v-1h-4c-.3,0-.5.5-.8.8,0,0,.3.6.6.6a21.23,21.23,0,0,0,4.2-.4ZM88.2,287l-.8,1c1,.8,1.8,1.6,2.7,2.3.3.2.6,0,1-.3.2-.3.2-.6-.2-1-.8-.7-1.8-1.3-2.7-2Zm35.2-.8a3,3,0,0,0-.2-4.2,2,2,0,0,0-1.3-.6Zm12.6.4.3.6,6-3.2-.5-.8ZM149.3,194l-.3.6,4.5,2.6.3-.6a7.63,7.63,0,0,0-4.5-2.6Zm0,84.7.6.6,4-3.9-.5-.5ZM37,231c-.8-.6-1.3-1.1-1.3-1a18.76,18.76,0,0,0-2.4,1.8c.3.3.6.8.8.6A14.53,14.53,0,0,0,37,231Zm92.7-38.7,7.7-.6c-2.2-.9-3.9-.9-7.7.6ZM99.8,301.5a2.62,2.62,0,0,0,1.8-2.9c0-.2-.5-.3-.8-.5-.3,1-.8,1.8-1.1,2.7C99.6,300.9,99.8,301.2,99.8,301.5Zm26.8-50.7-.3-.8-4.3,1.6.3,1ZM85,212.4c-2.9-.6-3.2-.5-3.7,1.6ZM83.7,278H83l-.5,3.7h.8Zm43.6-38.4.3.5,2.9-2.3-.3-.5c-1.5,0-2.3,1.2-2.9,2.3ZM59.7,309.7l-.2-1-3.9.6.2.8ZM20,272.2l-.8-.2-1,4.2.8.2Zm127.5-78.6v-.8l-3.9-.3v.8Zm-13.8-30.1v.6l3.4.2c-1.3-2.1-2.3-1.3-3.4-.8ZM52.3,208.2l.5.5,2.9-3.5C53.6,205.1,53.6,207.2,52.3,208.2Zm56.9,3.4-1,.2.8,4,.6-.2Zm55.9,3-1.3-3.2c-1.1,1.3-1,1.8,1.3,3.2Zm8.3,6.2c-.2,2.3.8,1.9,1.8,1.8l.3-.6ZM127.8,185h-.5l-1.1,2.3h2.1Z"/><path d="M124.5,394.8a20.84,20.84,0,0,0-3.2,3.9,3.81,3.81,0,0,0-.8,2.9c1.1,6.4,2.6,13,3.9,19.5a6.28,6.28,0,0,1,.3,1.9,1.43,1.43,0,0,1-.5,1.1c-.2.2-.6-.2-1-.3a13.43,13.43,0,0,1-2.7-1.3c-3.7-1.6-5.1-5-6.8-8.2-.5-1-1.1-1.9-1.8-3.2-4.8,4.3-7.4,10.1-12.2,14l-.3-.3c3.4-4.2,6.6-8.4,10.1-12.6a3.93,3.93,0,0,0,.6-4.7c-.8-2.4-1.6-4.8-2.3-7.4a5.82,5.82,0,0,0-1-1.9l-2.9,6.1-.5-.2c2.6-4.8,5.1-9.5,2.6-15.1h.5l2.1,5.1a15.48,15.48,0,0,0,0,4.3,62.84,62.84,0,0,0,2.3,8.2c.5,1.8,1.3,1.9,2.6.5a87.45,87.45,0,0,0,5.5-6.9,8.16,8.16,0,0,0,.6-2.7C121.8,398.5,122.3,395.5,124.5,394.8Zm-5.1,7.1-.6-.6c-.5.8-1.1,1.6-1.6,2.3a53.73,53.73,0,0,1-3.5,4.5,2.86,2.86,0,0,0,0,4.3h0c1,1.4,1.8,2.9,2.7,4.3,1.4,2.3,2.7,4.5,6.3,4.7Z"/><path d="M59.2,361.7c-1.8.2-2.3-.5-2.3-1.9a26.07,26.07,0,0,0-.5-4.8c-3.4,3.5-6.4,7.4-10.6,10l-.6-.3a26,26,0,0,1,1.6-4.7c1.6-2.9,3.7-5.5,5.3-8.4a84.88,84.88,0,0,0,4-9.5Zm-3.7-13a52.5,52.5,0,0,0-6.9,12.2,4.47,4.47,0,0,0,2.4-1.6c1.4-1.4,2.6-3.2,4-4.7C57.3,352.5,57.4,351.7,55.5,348.7Z"/><path d="M309.6,374.9a66.66,66.66,0,0,1-3.1,6.6c-3.1,6.6-6.4,13.2-9.3,20a138.79,138.79,0,0,0-4.5,13.8,16.93,16.93,0,0,1-1,2.7l-.5-.2,2.3-8.5-.6-.2-2.3,6.1-.5-.2c.8-2.1,1.3-4.3,2.3-6.4s2.3-4.5,3.2-6.6c4.2-8.2,8.2-16.6,12.4-24.8a13.81,13.81,0,0,1,1.6-2.3Z"/><path d="M309.7,375.1a27.48,27.48,0,0,1,2.3-5.6c2.6-5.5,5.1-10.8,7.7-16.1,1.9-4,3.4-8.2,6.8-11.6a17.09,17.09,0,0,0,1.4-1.1l.5.3c-.3.5-.5,1-.8,1.4a45,45,0,0,0-8.5,15.6c-1.3,3.9-3.5,7.2-4.8,11.1-1.2,2.3-3.1,4-4.6,6Z"/><path d="M302,337.2a271.3,271.3,0,0,1-9.8,28.8l-.8-.2c.8-2.7,1.3-5.6,2.4-8.4,2.3-6,4.7-11.9,7.1-17.9a6.06,6.06,0,0,1,1.1-2.3Z"/><path d="M326.5,359.1c-1.6-.8-2.6-.3-3.1,1.4-.5,2.3-1.3,4.7-1.8,6.9-.2.3-.3.6-.6.6l3.2-12.7-.6-.2-1.8,1.1c.8-3.7,2.3-6.8,6.3-8.2a40.9,40.9,0,0,0-1.6,4.2,22.71,22.71,0,0,0-.3,4.5,3.39,3.39,0,0,0,.3,2.4Z"/><path d="M308,326.1v-3.5l-.6-.2-2.1,4.8-.6-.3a23,23,0,0,1,2.4-5c1-1.4,2.1-2.6,1.1-4.3a2.21,2.21,0,0,1,0-1.6c.6-3.1,1.3-6.1,2.1-9.2.2-.3.3-.8.5-1.1C311.7,312.9,309.2,319.4,308,326.1Z"/><path d="M326.5,359.1c1.1,2.3,2.3,4.5,3.2,6.6a17.18,17.18,0,0,1,1.1,2.9c.3,1.1.8,2.3,2.3,1l1.9,8-.3.3a8,8,0,0,1-1.3-1.3c-2.3-4.8-4.3-9.5-6.4-14.3a8,8,0,0,1-.5-3.2Z"/><path d="M82.2,435.7l9.3-21.2C91.1,419.6,84.3,435.1,82.2,435.7Z"/><path d="M311.5,396.5c-.3,1.6-.6,3.1-1,4.5-.5,3.1-1,6.1-1.4,9.2a5.77,5.77,0,0,1-.3,1.4,1.39,1.39,0,0,1-1,.5c-.2,0-.5-.6-.5-.8a35.8,35.8,0,0,1,.6-3.7c1-3.9,2.1-7.6,3.1-11.3Z"/><path d="M73,431.5c1.4-3.7,2.7-7.4,4.2-11.1,0-.2.3-.3.6-.3a31.25,31.25,0,0,1-4.3,11.7Z"/><path d="M244.9,396.8l-1.8,15.1C242,410.3,243.3,399.3,244.9,396.8Z"/><path d="M182,428.3a38.79,38.79,0,0,1,.6-12.7v12.7Z"/><path d="M162.5,413.8l1.8,12.2a31.47,31.47,0,0,1-2.4-12.1Z"/><path d="M346.1,145.5c-3.9.8-8.2,1.6-12.6,0Z"/><path d="M86.4,421.7c-.3-2.6.8-5.3,3.9-8Z"/><path d="M335.2,338.2l-.8,6.9H334a15.87,15.87,0,0,1-.6-3.7,15,15,0,0,1,1.1-3.4Z"/><path d="M64.5,381l-2.1-11.6.5-.2L65,380.8Z"/><path d="M214.6,415.4l4.5,3.7c-1.4.8-4.1-1.7-4.5-3.7Z"/><path d="M302,337.2l1.9-8.4.8.2-2.7,8.2Z"/><path d="M232.2,406.4v-4.3h.5v4.3Z"/><path d="M258.1,35.6c-4,1.1-7.9,2.6-12.1,1.6a3.2,3.2,0,0,1-2.3-1.8c-.2-.5.8-1.6,1.4-2.3s1.4-1.6,2.3-2.4a6,6,0,0,1,.8-.8c2.7-.8,5.3-1.8,8-2.4a7.62,7.62,0,0,1,3.7.6l-3.4.5v.6a31.22,31.22,0,0,1,4.2,1.8,3,3,0,0,1,1.4,1.8c0,.5-1,1.3-1.9,1.8,1-1.6.3-2.3-1-2.6l-7.1-1.8a.61.61,0,0,0-.8,0,69,69,0,0,0-6.3,4.2C249.4,38,253.7,35.6,258.1,35.6Z"/><path d="M271.8,6.6a8.17,8.17,0,0,1,6.3,2.9c1,1.3.8,2.4-.6,2.9a60.2,60.2,0,0,1-8.2,1.8,3,3,0,0,1-3.2-2.1,2.3,2.3,0,0,1,.8-3.4c.2,0,.2-.2.3-.2,1.6-.8,3.1-1.6,4.7-2.3v.4Zm-1,6v.2c1.6-.3,3.2-.5,4.8-.8a1.65,1.65,0,0,0,1-1,2,2,0,0,0-.6-1.1,4.88,4.88,0,0,0-6.1-.8c-1.1.6-2.6,1.1-2.3,2.6s1.8,1.3,2.9,1.1Z"/><path d="M235.9,26.2c-1.3.6-2.6,1.3-4,1.8a28.44,28.44,0,0,1-5.1.5c-.6,0-1.4-1-2.1-1.6.5-.6,1-1.3,1.4-1.8s1.4-1.1,2.1-1.9c1.3-1.6,5.5-2.4,7.1-1.3a3.41,3.41,0,0,1,1.1,1.8c-4.2-1.6-6.6,1.1-9.7,2.9,3.1,1.1,6,.2,8.7-.8Z"/><path d="M293.5,15.6a23,23,0,0,1,4,2.3,1.06,1.06,0,0,1,.3,1.6,1,1,0,0,1-.8.5,10.14,10.14,0,0,1-8,.5,2.93,2.93,0,0,1-1.3-1.6,2.56,2.56,0,0,1,1.3-1.6C290.4,16.7,292,16.1,293.5,15.6Zm-3.9,2.7a4.76,4.76,0,0,0,6.4.3A8.35,8.35,0,0,0,289.6,18.3Z"/><path d="M216.7,49.2c.2-3.9,4.3-6.1,8.7-5C224.8,46.5,220.4,49.1,216.7,49.2Z"/><path d="M278.8,27.7c-1.4-.2-2.6-.5-2.7-2.1a3.46,3.46,0,0,1,3.4-3.5,3.61,3.61,0,0,1,2.9,3.2A3.71,3.71,0,0,1,278.8,27.7Z"/><path d="M261.1,23.3c-.6-.3-1.8-.8-1.9-1.3s.6-1.6,1.1-2.3a2.9,2.9,0,0,1,1-.8c1.1-.5,2.3-1.1,3.1.3s1,2.6-1,3.4C262.6,22.8,262.1,23,261.1,23.3Z"/><path d="M306.5,41.7c-.3-.3-1.4-.6-1.8-1.1s.6-1.4,1.1-2.1c0-.2.2-.2.3-.3a20.55,20.55,0,0,1,3.5-.2c.3,0,1,1.4,1,1.6-1,.6-1.9,1.3-2.9,1.9C307.8,41.7,307.3,41.5,306.5,41.7Z"/><path d="M315,30.4c-.6.6-1.1,1.6-1.6,1.6a11,11,0,0,1-3.7-.6c-1.4-.5-1-1.8-.8-2.9a2.27,2.27,0,0,1,.6-1.1,23.63,23.63,0,0,1,4.5.8C314.4,28.5,314.6,29.4,315,30.4Zm-4.6-1.1-.2,1a9.86,9.86,0,0,0,2.4.3,2.15,2.15,0,0,0,.2-1.1Z"/><path d="M277.1,36c.8.2,2.3-.2,2.6.3a5.37,5.37,0,0,1,.6,3.5c-.2,1.1-2.9,1.8-4.7,1.3s-1.8-1.6-1.8-3.4c1.3,1.9,3.1,3.1,4.7,1.6s-.8-1.8-1.4-2.6V36Z"/><path d="M253.7,14.2c0,1.6-1.1,2.4-3.4,2.4a2.45,2.45,0,0,1-1.8-1.1c-.2-1.4,1.8-3.2,3.4-3.2S253.7,12.6,253.7,14.2Z"/><path d="M295.1,32h.3a22.18,22.18,0,0,1,3.7,2.1,6.15,6.15,0,0,1-.3,1.1c-1.6.5-3.2,2.1-5,.8a12.41,12.41,0,0,1-1.8-2.1l2.9-2.3Zm-1.5,1.5v.6c1.8,1.8,2.7,1.9,4.7-.3Z"/><path d="M308.9,57.1c-.3-.2-1.3-.2-1.8-.6a3,3,0,0,1-.3-2.1c0-.3,1-.5,1.6-.6a7.08,7.08,0,0,1,2.9,0c.6.3,1.1,1.1,1.8,1.8a8.62,8.62,0,0,1-1.8,1.4A17.72,17.72,0,0,1,308.9,57.1Zm2.4-1.4v-.8h-2.7v.8Z"/><path d="M251.2,49.2c0,1.9-.8,2.7-1.9,2.6-1.3-.2-3.1-1.1-3.1-1.6.2-1.9,2.1-1.4,3.4-1.9C250,48.3,251,49.1,251.2,49.2Z"/><path d="M237.8,269.5h1.1a10.72,10.72,0,0,1,1.9,1.3,7,7,0,0,1-1.6,1.4,69.91,69.91,0,0,1-7.4,2.3c-.8.2-1.8-.6-2.6-1,.5-.8,1-2.3,1.6-2.6a55.76,55.76,0,0,1,6.8-1.6Zm1.8,1.9c-2.6-1.6-7.6-.3-8.2,1.9a14,14,0,0,0,8.2-1.9Z"/><path d="M213.8,287.2a9.5,9.5,0,0,1-1.8-.6c-.6-.5-1.4-1.3-1.4-1.9s1-1.4,1.8-1.6a5,5,0,0,1,2.9-.5,3.51,3.51,0,0,1,2.3,1.6c.5,1.3-.6,2.3-1.8,2.7A13.81,13.81,0,0,1,213.8,287.2Zm-1.6-2.2a2.55,2.55,0,0,0,3.5.6l.2-.2a1,1,0,0,0-.2-1.3c-1.4-1.2-2.2,0-3.5.9Z"/><path d="M244.2,303c-.8-.6-2.1-1.1-2.3-1.8a3.72,3.72,0,0,1,1.6-2.4,3.16,3.16,0,0,1,4-.2c1.4,1.1,1.6,2.3,0,3.2A23.84,23.84,0,0,1,244.2,303Zm-.9-2.3c1.3,1,3.4,1,3.7,0,0-.5-.2-1-.5-1.1a2.28,2.28,0,0,0-3.1.8A.49.49,0,0,1,243.3,300.7Z"/><path d="M246.5,278.2a4.72,4.72,0,0,1,5.8-1,2.6,2.6,0,0,1,1.4,1.8c.2.3-.8,1.1-1.4,1.4C249.6,281.4,247.5,280.4,246.5,278.2Zm1.9,1.1a14.28,14.28,0,0,0,2.9.3c.2,0,.5-1.1.3-1.3-.6-.8-2-.4-3.2,1Z"/><path d="M228.5,283.8c-1.4-1-3.5,0-3.7-2.3-.2-1.8,1.6-1.6,2.7-1.8a2.39,2.39,0,0,1,2.7,2.1v.2C230.1,282.7,229,283.3,228.5,283.8Z"/><path d="M269.7,292c-1.8,1.1,1.8,2.7-.6,3.7a6.31,6.31,0,0,1-2.7.2,2,2,0,0,1-1.6-2.4v-.3C264.8,292,267.3,291.4,269.7,292Zm-1.6,3.2.5-.8a9.31,9.31,0,0,0-1.9-1.1c-.2,0-.6.6-.8,1Z"/><path d="M226.1,296.7c-.8-1.1-1.9-1.9-1.9-2.4s1.3-1.3,1.9-1.9a9.4,9.4,0,0,1,1.8,2.4C228.2,294.9,227,295.7,226.1,296.7Z"/><path d="M241.7,289.8c-.2.3-.3.8-.5.8-1,.3-2.1.5-3.1.8,0-.5-.2-1.1,0-1.3C239.3,289.5,240.4,288.5,241.7,289.8Z"/><path d="M253.6,291.2c-.6-.6-1.4-1.1-1.4-1.4s1-1.3,1.1-1.3a4.84,4.84,0,0,1,1.6,1.3Z"/><path d="M201,364.8c-1.1-.8-.3-2.3-.5-3.4s-.2-2.6-.3-3.7c.5,0,.5,0,1,2.9.2,1.3.3,2.6.5,3.9Z"/><path d="M148.8,300.7a47.48,47.48,0,0,1,5,3.1,1.5,1.5,0,0,1,.2,1,4,4,0,0,1-3.9,1.9c-1.6-.3-3.5-2.6-3.2-3.7C147.1,302.2,148,301.7,148.8,300.7Z"/><path d="M162.2,309.4a3.63,3.63,0,0,1,3.5,2.7c0,1.3-1.3,2.3-3.1,2.3s-3.4-1.3-3.4-2.3A3.1,3.1,0,0,1,162.2,309.4Z"/><path d="M164.8,304.1c-2.3-.3-4.5-2.4-4.2-3.7a2.77,2.77,0,0,1,1.8-1.3c1.8,0,4.2,2.1,3.9,3.2C165.9,303,165.1,303.6,164.8,304.1Z"/><path d="M138.7,314.7c-1-.3-1.8-.3-2.1-.8A26.94,26.94,0,0,1,135,311a11.53,11.53,0,0,1,2.6-.3,3,3,0,0,1,1.8.6,7.71,7.71,0,0,1,1.4,1.9Z"/><path d="M176,307c-1.9-.5-3.4-.6-3.4-2.4a2.86,2.86,0,0,1,1.8-1.9c1.4-.3,3.4,1.3,3.1,2.1A5.11,5.11,0,0,1,176,307Z"/><path d="M78.4,186.6c-.3-.3-1-.8-1.1-1.4-.6-2.6.8-4.2,3.4-4.3a26.71,26.71,0,0,0,4-1.3c1.3-.5,1.6.3,1.4,1.4C85.6,182.9,81.1,186.6,78.4,186.6Zm5.1-4.3-.3-.6c-1.1.5-2.4,1-3.5,1.6a9.32,9.32,0,0,0-1,1c.5.2,1.1.6,1.4.5a14.23,14.23,0,0,0,3.4-2.5Z"/><path d="M120.2,164.1a22.52,22.52,0,0,1,4.5,1.9c.5.3.8,1,.5,1.4s-.3.5-.6.5c-2.4.8-4.8,1.4-7.2,2.1a2.42,2.42,0,0,1-1.8-1.3,2.53,2.53,0,0,1,.6-2.1A29.18,29.18,0,0,1,120.2,164.1Zm2.2,3.6-.2-1.1h-4c-.3,0-.6.6-1,1.1.3.2.6.6,1,.6A42.35,42.35,0,0,0,122.4,167.7Z"/><path d="M78,195a9.92,9.92,0,0,1-2.6-2.3c-.2-.5.8-1.8,1.6-2.1a21.46,21.46,0,0,1,4.5-1.4,2.52,2.52,0,0,1,1.9,1.1,2,2,0,0,1-.5,1.9A30.44,30.44,0,0,1,78,195Z"/><path d="M99.9,171c.3.2,1.4.5,1.8,1.1s-.3,1.8-.8,2.3a4.75,4.75,0,0,1-5.3,1.6c-1.3-.3-1.4-1.1-1-2.3C95.4,171.8,97,171,99.9,171Z"/><path d="M105.2,181.7l-2.6-1.6a6.22,6.22,0,0,1,1.4-1.9,5.88,5.88,0,0,1,2.6-1.9,3.81,3.81,0,0,1,2.9.5,2.11,2.11,0,0,1,0,2.4C108.1,180,106.7,181,105.2,181.7Z"/><path d="M67.1,191c1.8-.2,1.9,1.3,1.8,2.3-.2,1.3-.6,2.9-2.4,3.2-1,.2-1.9,2.1-2.9.8-.5-.8,0-2.4.3-3.5C64.4,191.6,65.2,191,67.1,191Z"/><path d="M170.7,188.1c1-1.8,2.7-1.4,4-1.1a5.84,5.84,0,0,1,3.2,2.1c.3.3-.6,2.1-1.4,2.7s-3.5-.8-4-1.6A9.09,9.09,0,0,0,170.7,188.1Z"/></svg>